<?xml version="1.0" standalone="no"?>
<!DOCTYPE svg PUBLIC "-//W3C//DTD SVG 1.1//EN" "http://www.w3.org/Graphics/SVG/1.1/DTD/svg11.dtd" >
<svg>
<metadata>
Created by FontForge 20120731 at Tue Dec 16 07:01:12 2014
 By Orthosie Webhosting
SIL Open Font License 1.1
</metadata>
<defs>
<font id="PropCoIconsRegular" horiz-adv-x="1642" >
  <font-face 
    font-family="PropCoIconsRegular"
    font-weight="400"
    font-stretch="normal"
    units-per-em="1792"
    panose-1="2 0 0 0 0 0 0 0 0 0"
    ascent="1536"
    descent="-256"
    bbox="-3 -326 1749 1425"
    underline-thickness="90"
    underline-position="-89"
    unicode-range="U+00B8-F057"
  />
<missing-glyph horiz-adv-x="896" 
 />
    <glyph glyph-name=".notdef" horiz-adv-x="896" 
 />
    <glyph glyph-name=".null" horiz-adv-x="0" 
 />
    <glyph glyph-name="nonmarkingreturn" horiz-adv-x="597" 
 />
    <glyph glyph-name="cedilla" unicode="&#xb8;" horiz-adv-x="1262" 
d="M-1 1131h844v-122h-348v-956h-146v956h-350v122v0zM1265 1173h-87v-1162h87v-95h-87h-95h-86v95h86v1162h-86v95h86h95h87v-95z" />
    <glyph glyph-name="caron" unicode="&#x2c7;" horiz-adv-x="1638" 
d="M1562 735q31 0 52.5 -21.5t21.5 -53.5v-194q0 -31 -21.5 -52.5t-52.5 -21.5h-114q-23 -80 -65 -151l82 -82q22 -22 22 -53t-22 -53l-137 -137q-24 -22 -53 -22q-30 0 -52 22l-85 85q-71 -40 -149 -60v-121q0 -32 -21.5 -53.5t-52.5 -21.5h-194q-31 0 -53 21.5t-22 53.5
v121q-80 22 -148 60l-85 -85q-22 -22 -53 -22q-30 0 -52 22l-137 137q-22 22 -22 53t22 53l82 82q-42 71 -65 151h-114q-31 0 -52.5 21.5t-21.5 52.5v194q0 32 21.5 53.5t52.5 21.5h108q21 84 63 159l-74 74q-22 22 -22 53q0 30 22 52l137 137q21 22 52 22q30 0 53 -21
l72 -72q75 45 161 68v100q0 31 22 53t53 22h194q31 0 52.5 -22t21.5 -53v-100q87 -23 162 -68l72 72q21 21 52 21t53 -22l137 -137q22 -22 22 -52q0 -31 -22 -53l-74 -74q42 -75 63 -159h108zM1562 660h-116h-51l-12 50q-10 41 -25 79.5t-35 73.5l-25 43l35 35l79 80
l-137 137l-77 -77l-36 -36l-43 26q-71 44 -156 66l-48 13v50v107h-194v-107v-50l-49 -13q-83 -21 -155 -66l-44 -26l-36 36l-77 77l-137 -137l80 -80l35 -35l-25 -43q-42 -72 -61 -153l-12 -50h-51h-115v-194h121h49l13 -47q11 -38 27 -74.5t36 -71.5l27 -43l-36 -37
l-88 -87l137 -137l91 90l35 35l43 -25q33 -19 69 -33.5t74 -24.5l49 -12v-51v-128h194v128v51l48 12q76 19 144 58l43 25l35 -35l90 -90l137 137l-87 87l-36 37l26 43q42 69 63 146l13 47h50h121v194zM818 892q68 0 127.5 -26t104 -70.5t70.5 -104.5t26 -128t-26 -127.5
t-70.5 -104t-104 -70.5t-127.5 -26t-127.5 26t-104 70.5t-70.5 104t-26 127.5t26 128t70.5 104.5t104 70.5t127.5 26zM818 309q52 0 98.5 20t81 54.5t54.5 80.5t20 99q0 52 -20 98.5t-54.5 81t-81 54.5t-98.5 20q-53 0 -99 -20t-80.5 -54.5t-54.5 -81t-20 -98.5
q0 -53 20 -99t54.5 -80.5t80.5 -54.5t99 -20z" />
    <glyph glyph-name="search" unicode="&#x2d9;" horiz-adv-x="1561" 
d="M1534 -88q17 -17 17 -42t-17 -43l-63 -63q-18 -17 -42.5 -17t-41.5 17l-497 497q-6 6 -8 10q-69 -48 -149 -73.5t-169 -25.5q-117 0 -219.5 44t-179 120.5t-120.5 179t-44 219.5q0 116 44 218.5t120.5 179t179 120.5t219.5 44q116 0 218.5 -44t179 -120.5t121 -179
t44.5 -218.5q0 -90 -26 -170t-73 -149q2 -2 4.5 -4t5.5 -4zM98 735q0 -97 36.5 -182t100 -148t148.5 -99.5t181 -36.5t181 36.5t148.5 99.5t100 148t36.5 182q0 96 -36.5 181t-100 148t-148.5 99.5t-181 36.5t-181 -36.5t-148.5 -99.5t-100 -148t-36.5 -181z" />
    <glyph glyph-name="email" unicode="&#x2da;" horiz-adv-x="1473" 
d="M1076 167q-77 0 -126 38q-50 38 -62 115q-57 -81 -125 -116t-146 -35q-60 0 -103 21q-42 19 -73 56q-29 36 -44 86q-7 26 -10.5 52.5t-3.5 55.5q0 83 32 170q32 85 96 155q32 35 71.5 63t87.5 50q92 44 219 44q68 0 117 -10q52 -11 95 -31l-93 -359q-9 -37 -14 -67.5
t-5 -55.5q0 -35 9 -59t25 -37q15 -13 35 -18q11 -3 21.5 -4t22.5 -1q49 0 92 28q44 28 77 78q34 52 53 122q19 69 19 158q0 139 -44 240q-43 103 -121 173q-78 69 -182 103q-53 17 -109.5 25.5t-116.5 8.5q-132 0 -250 -50q-116 -51 -203 -141t-136 -211q-50 -124 -50 -267
q0 -168 54 -297q52 -127 145 -214t215 -130q126 -44 266 -44q151 0 267 33q59 17 108.5 37.5t92.5 46.5q8 4 14.5 6.5t12.5 2.5q21 0 30 -24l25 -66q-106 -72 -242 -112q-68 -21 -144.5 -31t-163.5 -10q-173 0 -320 55q-75 27 -138.5 66.5t-118.5 90.5q-108 103 -171 252
q-62 151 -62 338q0 108 27 209q14 51 33 97t45 91q25 43 54.5 82.5t64.5 75.5q67 72 155 124q43 26 88.5 45.5t95.5 33.5q99 29 206 29q46 0 90 -5t89 -15q44 -11 85 -25t80 -34q78 -39 144 -96q65 -57 113 -131q23 -37 41.5 -78t31.5 -87q27 -92 27 -197q0 -54 -8 -103.5
t-23 -95.5q-30 -91 -83 -157q-54 -68 -126 -105q-73 -38 -155 -38zM652 287q33 0 62 10q30 9 61 35q29 23 54 67q12 22 22.5 48.5t18.5 58.5l76 294q-39 9 -85 9q-73 0 -137 -32q-63 -32 -107 -82q-45 -51 -70 -116q-12 -33 -18.5 -66t-6.5 -68q0 -72 33 -115t97 -43z" />
    <glyph glyph-name="ogonek" unicode="&#x2db;" horiz-adv-x="1471" 
d="M1472 69v-102h-1473v102l215 179v506q0 99 32.5 187t90.5 157.5t136 117t170 64.5v41q0 26 18 44.5t43 18.5h62q26 0 43.5 -18.5t17.5 -44.5v-40q92 -17 170.5 -64.5t136.5 -117.5t90.5 -158t32.5 -187v-506zM735 -253q-32 0 -60 12.5t-48.5 33.5t-32.5 49.5t-12 61.5
h307q0 -33 -12 -61.5t-33 -49.5t-49 -33.5t-60 -12.5z" />
    <glyph glyph-name="hungarumlaut" unicode="&#x2dd;" horiz-adv-x="1621" 
d="M1624 554q0 -17 -7 -31.5t-18 -24.5l-254 -228q-10 -9 -23 -14.5t-28 -5.5q-31 0 -53 22t-22 54q0 35 25 57l106 95h-461v-460l96 106q11 11 25 18t31 7q32 0 54 -22t22 -54q0 -30 -19 -51l-228 -253q-11 -12 -25.5 -19t-31.5 -7q-33 0 -56 26l-228 253q-9 10 -14.5 23
t-5.5 28q0 32 22 54t54 22q17 0 31.5 -7t25.5 -18l95 -106v460h-460l106 -95q11 -11 18 -25.5t7 -31.5q0 -32 -22 -54t-54 -22q-15 0 -27.5 5.5t-23.5 14.5l-253 228q-26 21 -26 56q0 17 7 31.5t19 25.5l253 228q22 19 51 19q32 0 54 -22t22 -54q0 -17 -7 -31t-18 -25
l-106 -96h460v461l-95 -106q-11 -12 -25.5 -19t-31.5 -7q-32 0 -54 22.5t-22 53.5q0 15 5.5 28t14.5 23l228 254q11 11 25 18t31 7t31.5 -7t25.5 -18l228 -254q19 -21 19 -51q0 -31 -22 -53.5t-54 -22.5q-33 0 -56 26l-96 106v-461h461l-106 96q-25 22 -25 56q0 32 22 54
t53 22q30 0 51 -19l254 -228q11 -11 18 -25.5t7 -31.5z" />
    <glyph glyph-name="paint roller" unicode="&#xf000;" horiz-adv-x="1440" 
d="M777 -254h-294q-14 0 -22.5 9t-8.5 22v541q0 8 2 12l96 229q4 8 11.5 13.5t16.5 5.5h67h36q10 0 17.5 -5.5t11.5 -13.5l96 -229q2 -8 2 -12v-541q0 -13 -9 -22q-11 -9 -22 -9zM513 -192h234v504l-86 204h-62l-86 -204v-504zM1189 889h-1118q-28 0 -49 21q-22 22 -22 51
v328q0 28 22 50q20 20 49 20h1118q29 0 49.5 -20.5t20.5 -49.5v-328q0 -30 -20.5 -51t-49.5 -21zM71 1298q-3 0 -6 -3t-3 -6v-328q0 -4 3 -7t6 -3h1118q3 0 6 2.5t3 7.5v328q0 3 -3 6t-6 3h-1118zM629 548q-13 0 -22 8.5t-9 21.5v92q0 29 21 50t50 21l701 -3q9 0 9 9l1 326
q0 9 -10 9h-114q-13 0 -22 9t-9 22t9 22t22 9h114q29 0 50 -21t21 -50v-326q0 -29 -21 -49.5t-50 -20.5l-701 2q-9 0 -9 -9v-92q0 -13 -9 -21.5t-22 -8.5zM145 499q-25 0 -47 9.5t-38.5 26t-26 38.5t-9.5 47q0 21 12.5 53.5t29 65t31.5 59.5t21 37q10 15 27 15q16 0 26 -15
q6 -10 21.5 -37t32 -59.5t29 -65t12.5 -53.5q0 -25 -9.5 -47t-26 -38.5t-38.5 -26t-47 -9.5zM145 758q-12 -22 -23 -43.5t-19 -40t-13 -33t-5 -21.5q0 -25 17.5 -42t42.5 -17q24 0 41.5 17t17.5 42q0 7 -4.5 21.5t-13 33t-19 40t-22.5 43.5zM452 1000q-45 0 -78.5 27.5
t-43.5 69.5q-5 -2 -11 -2h-12q-41 0 -69.5 28t-28.5 69v123q0 13 9 22t22 9t22 -9t9 -22v-123q0 -15 10.5 -25.5t25.5 -10.5q16 0 27 12q14 16 34 9q20 -8 20 -29v-23q0 -26 19 -45t45 -19t45.5 19t19.5 45v49q0 21 20 28q9 4 18.5 1.5t15.5 -9.5q13 -16 32 -16
q17 0 29.5 12.5t12.5 29.5v106q0 13 9 22t22 9t22 -9t9 -22v-106q0 -21 -8 -40t-22.5 -33t-33.5 -22t-40 -8q-13 0 -25 3q-1 -25 -11.5 -47t-27.5 -38t-39.5 -25.5t-47.5 -9.5zM777 -254h-294q-14 0 -22.5 9t-8.5 22v541q0 8 2 12l96 229q4 8 11.5 13.5t16.5 5.5h67h36
q10 0 17.5 -5.5t11.5 -13.5l96 -229q2 -8 2 -12v-541q0 -13 -9 -22q-11 -9 -22 -9zM513 -192h234v504l-86 204h-62l-86 -204v-504zM1189 889h-1118q-28 0 -49 21q-22 22 -22 51v328q0 28 22 50q20 20 49 20h1118q29 0 49.5 -20.5t20.5 -49.5v-328q0 -30 -20.5 -51t-49.5 -21
zM71 1298q-3 0 -6 -3t-3 -6v-328q0 -4 3 -7t6 -3h1118q3 0 6 2.5t3 7.5v328q0 3 -3 6t-6 3h-1118zM629 548q-13 0 -22 8.5t-9 21.5v92q0 29 21 50t50 21l701 -3q9 0 9 9l1 326q0 9 -10 9h-114q-13 0 -22 9t-9 22t9 22t22 9h114q29 0 50 -21t21 -50v-326q0 -29 -21 -49.5
t-50 -20.5l-701 2q-9 0 -9 -9v-92q0 -13 -9 -21.5t-22 -8.5zM145 499q-25 0 -47 9.5t-38.5 26t-26 38.5t-9.5 47q0 21 12.5 53.5t29 65t31.5 59.5t21 37q10 15 27 15q16 0 26 -15q6 -10 21.5 -37t32 -59.5t29 -65t12.5 -53.5q0 -25 -9.5 -47t-26 -38.5t-38.5 -26t-47 -9.5z
M145 758q-12 -22 -23 -43.5t-19 -40t-13 -33t-5 -21.5q0 -25 17.5 -42t42.5 -17q24 0 41.5 17t17.5 42q0 7 -4.5 21.5t-13 33t-19 40t-22.5 43.5zM452 1000q-45 0 -78.5 27.5t-43.5 69.5q-5 -2 -11 -2h-12q-41 0 -69.5 28t-28.5 69v123q0 13 9 22t22 9t22 -9t9 -22v-123
q0 -15 10.5 -25.5t25.5 -10.5q16 0 27 12q14 16 34 9q20 -8 20 -29v-23q0 -26 19 -45t45 -19t45.5 19t19.5 45v49q0 21 20 28q9 4 18.5 1.5t15.5 -9.5q13 -16 32 -16q17 0 29.5 12.5t12.5 29.5v106q0 13 9 22t22 9t22 -9t9 -22v-106q0 -21 -8 -40t-22.5 -33t-33.5 -22
t-40 -8q-13 0 -25 3q-1 -25 -11.5 -47t-27.5 -38t-39.5 -25.5t-47.5 -9.5z" />
    <glyph glyph-name="tools" unicode="&#xf001;" horiz-adv-x="1667" 
d="M369 -254q-48 0 -83 35l-119 118q-17 18 -26.5 40.5t-7.5 47.5q2 53 42 87l884 764q11 9 24.5 8.5t21.5 -11.5q9 -11 8.5 -24.5t-11.5 -21.5l-883 -764q-20 -17 -20 -41q-2 -21 15 -38l119 -119q15 -16 38 -16q25 2 41 21l763 883q9 11 22.5 11.5t24.5 -7.5
q11 -9 11.5 -22.5t-8.5 -24.5l-763 -883q-35 -41 -88 -43h-5zM1629 361q-2 0 -4 0.5t-4 0.5q-10 2 -36 10.5t-53.5 23.5t-50 38t-24.5 55q-2 21 -5 36t-8 26.5t-13 21t-19 20.5q-15 14 -32.5 26t-33.5 22q-6 4 -11.5 7.5t-11.5 6.5q-20 -3 -41 -3q-48 0 -91.5 18t-78.5 52
q-24 24 -40 53.5t-24 61.5q-4 15 -2 27.5t4 21.5q3 16 2 18q-2 4 -9.5 11t-16.5 15.5t-18.5 16.5t-15.5 14t-9 8q-5 -2 -9 -3.5t-6 -2.5q-4 -2 -5 -2q-20 -7 -35 7l-83 80q-14 14 -8 34q1 3 10 25t31 43l178 178q20 21 42 25.5t32 4.5h6q9 0 18 -7l50 -41q1 0 3 -2
q18 -18 26 -32t7 -26q0 -4 -2 -12l-22 -50q1 -7 6 -16.5t11.5 -18.5t14 -16t12.5 -8q8 -1 15.5 -1.5t16.5 -1.5q14 -1 29 -2.5t31 -7.5q55 -17 96 -58q42 -43 59.5 -100t5.5 -116q5 -6 11.5 -14t11.5 -15q14 -18 22 -29.5t13 -19.5q4 -8 7.5 -14t6.5 -12q14 -26 28 -55.5
t31 -81.5q11 -34 15 -70t5 -66.5t-0.5 -51t-1.5 -22.5q-1 -15 -14 -24q-9 -6 -19 -6zM1332 724q11 0 21 -8q4 -4 12 -9t17 -11q17 -11 37 -24.5t38 -30.5q17 -16 28.5 -31t19 -32t11.5 -37t6 -47q2 -15 25 -30t52 -26q0 29 -3 68.5t-14 74.5q-8 24 -15 42t-13.5 32t-13 26.5
t-13.5 24.5q-4 7 -7.5 13.5t-6.5 13.5q-3 5 -12 17t-17 22q-27 35 -35 49q-6 11 -2 24q11 45 -1.5 89.5t-44.5 76.5q-29 29 -69 43q-11 3 -22 4l-22 2q-10 1 -19.5 2t-20.5 3q-19 3 -36.5 16.5t-31 31.5t-21.5 37t-9 34v11q0 7 3 13l18 42l-4.5 4.5l-5.5 5.5l-39 32
q-11 -2 -19 -10l-179 -179q-5 -5 -9 -11.5t-7 -11.5l51 -50q4 2 8.5 4t10.5 4q19 8 35 -7q4 -4 9.5 -9t12.5 -11q30 -26 49.5 -45.5t26.5 -33.5q9 -19 7 -34.5t-4 -26.5q-3 -14 -2 -19q11 -47 47 -83q25 -25 56.5 -38t66.5 -13q19 0 41 5q3 1 9 1zM331 554
q-67 0 -126.5 24.5t-107.5 72.5q-33 33 -55.5 73.5t-33 84.5t-8.5 89.5t17 90.5q5 19 23 22q18 4 31 -9l180 -179q2 -5 5 0l137 136q3 3 0 6l-179 180q-13 13 -9 31q3 16 22 23q25 9 51 13t53 4q66 0 126.5 -25t107.5 -72q48 -48 72.5 -108t24.5 -126q0 -67 -24.5 -127
t-72.5 -107q-47 -48 -107.5 -72.5t-126.5 -24.5zM67 913q-7 -60 13 -116t63 -100q38 -38 86 -57.5t102 -19.5t102 19.5t85 57.5q38 38 58 86t20 102t-20 102t-58 86q-37 37 -85 57t-102 20h-14t-14 -1l137 -137q20 -21 20 -50t-20 -49l-137 -137q-21 -21 -49 -21
q-29 0 -50 21zM742 621q-16 0 -26 12q-12 16 -23.5 31.5t-22.5 30.5q-42 61 -71 122q-5 13 -0.5 26t17.5 18q12 6 25 1.5t18 -17.5q13 -28 29 -55.5t36 -56.5q10 -15 21 -29.5t22 -29.5q9 -11 8 -24.5t-12 -21.5q-10 -7 -21 -7zM1298 -253h-1q-71 0 -120 51l-29 30
t-74.5 77.5t-102 106.5t-113.5 118q-10 10 -9.5 23.5t10.5 22.5q10 10 23.5 9.5t22.5 -10.5q57 -60 113.5 -118t102.5 -106q54 -55 103 -107q29 -31 73 -31h1q43 0 72 29q30 32 29 73q0 43 -31 74q-56 55 -117 113q-52 50 -115 110.5t-124 120.5q-10 10 -10 23.5t10 23.5
q9 10 22.5 10t23.5 -9q61 -60 124 -120t115 -111q61 -59 117 -114q51 -51 51 -121t-49 -119q-23 -24 -53.5 -36.5t-64.5 -12.5zM556 444q-13 0 -21 7q-15 12 -30.5 23.5t-30.5 21.5q-27 18 -52.5 32.5t-51.5 26.5q-12 6 -17 18.5t1 25.5q6 12 18.5 16.5t25.5 -0.5
q56 -26 112 -64q33 -23 66 -48q11 -8 12.5 -22t-7.5 -24q-9 -13 -25 -13z" />
    <glyph glyph-name="property settings" unicode="&#xf002;" horiz-adv-x="1624" 
d="M813 628q38 0 72 -14.5t59 -39.5t39.5 -59t14.5 -72q0 -39 -14.5 -72.5t-39.5 -58.5t-59 -39.5t-72 -14.5t-72 14.5t-59.5 39.5t-40 58.5t-14.5 72.5q0 38 14.5 72t40 59t59.5 39.5t72 14.5zM813 315q26 0 49.5 10t41 27.5t27.5 41t10 49.5t-10 49.5t-27.5 41t-41 27.5
t-49.5 10t-49.5 -10t-41 -27.5t-27.5 -41t-10 -49.5t10 -49.5t27.5 -41t41 -27.5t49.5 -10zM1213 552q24 0 41 -16t17 -41v-104q0 -23 -17 -40.5t-41 -17.5h-48q-11 -30 -26 -61l34 -35q17 -17 17 -40.5t-17 -40.5l-73 -74q-9 -8 -19.5 -12.5t-21.5 -4.5t-22 4.5t-19 12.5
l-36 37q-14 -8 -29 -13.5t-30 -10.5v-53q0 -23 -17 -40t-41 -17h-104q-24 0 -41 17t-17 40v53q-16 5 -30.5 10.5t-28.5 13.5l-36 -37q-8 -8 -19 -12.5t-22 -4.5t-22 4.5t-19 12.5l-74 74q-17 17 -17 40.5t17 40.5l35 35q-8 15 -14.5 30.5t-11.5 30.5h-48q-24 0 -41 17.5
t-17 40.5v104q0 25 17 41t41 16h44q5 18 11.5 34t14.5 31l-31 32q-16 15 -16 40t16 40l74 75q8 8 19 12.5t22 4.5q21 0 41 -17l29 -30q16 10 32.5 16.5t33.5 11.5v41q0 23 17 40t41 17h104q24 0 41 -17t17 -40v-41q17 -5 33.5 -11.5t32.5 -16.5l29 30q8 8 19 12.5t22 4.5
t21.5 -4.5t19.5 -12.5l73 -75q17 -15 17 -40t-17 -40l-30 -32q8 -15 14.5 -31t11.5 -34h44zM1213 495h-62h-28l-6 26q-10 43 -33 83l-13 23l19 19l43 43l-74 73l-41 -40l-20 -20l-23 14q-39 24 -84 36l-26 6v27v58h-104v-58v-27l-27 -6q-44 -12 -83 -36l-24 -14l-19 20
l-41 40l-74 -73l43 -43l19 -19l-14 -23q-11 -20 -19 -40t-13 -43l-7 -26h-27h-62v-104h65h26l7 -26q12 -43 34 -78l14 -24l-19 -19l-47 -47l74 -74l48 49l19 18l23 -13q34 -20 77 -31l27 -7v-27v-70h104v70v27l26 7q44 11 77 31l24 13l18 -18l49 -49l74 74l-47 47l-20 19
l14 24q23 35 34 78l8 26h26h65v104zM1609 865q13 -16 15 -36t-7 -38q-10 -19 -27 -29t-37 -10h-142v-880q0 -26 -10 -48t-26.5 -39t-39.5 -26.5t-48 -9.5h-950q-26 0 -48.5 9.5t-39 26.5t-26.5 39t-10 48v880h-140q-21 0 -38 10t-26 29q-9 20 -7 39.5t16 35.5q1 1 1 2t2 1
l337 306q21 25 54 25h412v117q0 19 12.5 31.5t30.5 12.5h221q20 0 33.5 -13t13.5 -33v-115h87q16 0 30 -6t24 -19l330 -306zM1565 817q1 1 1.5 4.5t-1.5 8.5l-329 304l-3 3q-4 5 -11 5h-99q-19 0 -32.5 13.5t-13.5 33.5v115h-196v-117q0 -19 -13 -32t-31 -13h-425
q-8 0 -10 -5q-3 0 -4 -3l-336 -304q-3 -5 -2.5 -8.5t1.5 -4.5q1 -2 3.5 -5t8.5 -3h169q12 0 20 -8.5t8 -21.5v-907q0 -27 19.5 -46.5t47.5 -19.5h950q28 0 47.5 19.5t19.5 46.5v902q0 14 10 24.5t25 10.5h164q10 0 12 8z" />
    <glyph glyph-name="chain management" unicode="&#xf003;" horiz-adv-x="1624" 
d="M1286 -255h-951q-26 0 -48 9.5t-39 26.5t-26.5 39t-9.5 48v879h-140q-21 0 -38 10.5t-26 29.5t-7 39t15 36q3 3 4 3l337 306q20 25 54 25h411v117q0 19 13 31.5t31 12.5h221q20 0 33 -13t13 -33v-115h88q32 0 54 -25l330 -306q2 -2 3 -4q12 -16 14 -36t-7 -38
q-9 -19 -26 -29.5t-37 -10.5h-142v-879q0 -26 -10 -48t-26.5 -39t-39.5 -26.5t-48 -9.5zM60 825q-2 -5 -1.5 -8t0.5 -5l4.5 -4.5t8.5 -2.5h168q13 0 21 -8.5t8 -21.5v-907q0 -27 19.5 -46.5t46.5 -19.5h951q27 0 46.5 19.5t19.5 46.5v902q0 14 10.5 24.5t24.5 10.5h165
q10 0 12 7q1 2 1.5 5t-2.5 8l-328 305q-2 1 -4 3q-3 5 -10 5h-99q-19 0 -32.5 13.5t-13.5 33.5v115h-196v-117q0 -19 -13 -32t-32 -13h-424q-7 0 -11 -5l-3 -3zM594 67q-52 0 -92 38l-13 13q-19 19 -28.5 43t-9.5 49.5t9.5 49.5t28.5 43l187 187q26 25 59.5 34t68.5 0
q6 -2 12 -4.5t12 -5.5q11 -5 14.5 -16t-2.5 -22q-5 -11 -16 -14.5t-22 1.5q-4 2 -7 3t-7 2q-19 5 -38 0t-33 -19l-187 -187q-21 -21 -21 -51.5t21 -51.5l13 -13q22 -21 52 -21t51 21l131 131q8 8 20.5 8t20.5 -8t8 -20t-8 -20l-131 -132q-19 -19 -43 -28.5t-50 -9.5z
M855 327q-32 0 -60 15q-11 5 -14.5 16t2.5 22q5 11 16 14.5t22 -1.5q21 -11 44.5 -7.5t40.5 20.5l187 187q22 22 22 52t-22 52l-13 12q-21 22 -51 22t-52 -22l-131 -131q-8 -8 -20 -8t-21 8q-8 9 -8 21t8 20l132 131q19 19 43 28.5t49 9.5t49 -9.5t43 -28.5l13 -13
q38 -38 38 -92q0 -55 -38 -93l-187 -186q-19 -20 -43 -29.5t-49 -9.5z" />
    <glyph glyph-name="heart" unicode="&#xf004;" horiz-adv-x="1629" 
d="M1034 576q10 10 24 10t24 -10q11 -10 12 -24t-10 -25l-222 -227q-3 -5 -10 -9t-15 -4q-1 0 -1 -0.5t-1 -0.5q-2 0 -2.5 0.5t-1.5 0.5h-1h-3q-2 0 -8 2l-220 107q-13 7 -18 20t1 26q7 14 20.5 18.5t26.5 -2.5l198 -95zM1611 861q12 -16 13.5 -36t-6.5 -38
q-9 -19 -26 -29.5t-37 -10.5h-142v-879q0 -26 -10 -48t-27 -39t-39.5 -26.5t-48.5 -9.5h-951q-25 0 -47.5 9.5t-39 26.5t-26 39t-9.5 48v879h-141q-20 0 -37.5 10.5t-27.5 29.5q-8 20 -6 39.5t15 35.5q2 1 2.5 2t1.5 1l337 306q10 13 24 19t31 6h410v117q0 19 13.5 31.5
t31.5 12.5h221q20 0 33 -13t13 -33v-115h88q32 0 54 -25l329 -306q1 -1 2 -1.5t2 -2.5zM1567 813q2 2 -2 13l-328 304l-4 3q-1 5 -9 5h-99q-20 0 -34 13.5t-14 33.5v115h-194v-117q0 -19 -13.5 -32t-32.5 -13h-423q-8 0 -12 -5q-1 0 -2 -3l-337 -304q-2 -5 -2 -8.5v-4.5
q2 -2 4.5 -5t8.5 -3h168q13 0 21.5 -8.5t8.5 -21.5v-907q0 -27 19.5 -46.5t45.5 -19.5h951q27 0 46.5 19.5t19.5 46.5v902q0 14 10.5 24.5t25.5 10.5h165q5 0 7.5 2.5t4.5 5.5zM815 853q86 0 162 -33t132.5 -89.5t89.5 -132.5t33 -162t-33 -162t-89.5 -133t-132.5 -90
t-162 -33q-87 0 -163 33t-133 90t-89.5 133t-32.5 162t32.5 162t89.5 132.5t133 89.5t163 33zM815 76q74 0 139.5 28.5t114.5 77t77.5 114t28.5 140.5t-28.5 140.5t-77.5 114t-114.5 77t-139.5 28.5q-75 0 -140.5 -28.5t-115 -77t-78 -114t-28.5 -140.5t28.5 -140.5t78 -114
t115 -77t140.5 -28.5z" />
    <glyph glyph-name="star" unicode="&#xf005;" horiz-adv-x="1621" 
d="M1284 -257h-951q-26 0 -48.5 9.5t-39 26.5t-26.5 39t-10 48v879h-140q-20 0 -37.5 10.5t-26.5 29.5q-8 19 -6 39t15 36l3 3l338 306q10 12 24 18.5t29 6.5h412v117q0 19 13 31.5t31 12.5h221q19 0 32.5 -13t13.5 -33v-115h87q33 0 55 -25l329 -306q3 -2 3 -4
q13 -16 15 -36t-7 -38q-9 -19 -26 -29.5t-38 -10.5h-142v-879q0 -26 -9.5 -48t-26.5 -39t-39.5 -26.5t-47.5 -9.5zM58 823q-3 -5 -2.5 -8t1.5 -5l4.5 -4.5t7.5 -2.5h169q12 0 20.5 -8.5t8.5 -21.5v-907q0 -27 19.5 -46.5t46.5 -19.5h951q27 0 46.5 19.5t19.5 46.5v902
q0 14 10.5 24.5t24.5 10.5h164q6 0 8.5 2.5l4.5 4.5q0 2 0.5 5t-1.5 8l-329 305l-3 3q-4 5 -11 5h-98q-20 0 -33.5 13.5t-13.5 33.5v115h-196v-117q0 -19 -12.5 -32t-31.5 -13h-425q-8 0 -10 -5l-3 -3zM984 191h-228q23 30 33 65t10 80q0 22 -3 45h119q10 0 16.5 6.5
t6.5 15.5v34q0 10 -6.5 16.5t-16.5 6.5h-137q-2 10 -4 15q-8 26 -14 52t-6 52q0 18 5 35.5t16 32t28.5 23t43.5 8.5q27 0 48 -11t42 -36q4 -3 8 -5.5t9 -2.5q8 -1 17 6l27 25q14 15 2 32q-59 74 -153 74q-83 0 -132 -49t-49 -132q0 -32 7 -61t15 -58l-54 -3q-9 0 -15.5 -7
t-6.5 -16v-31q0 -9 6.5 -15.5t16.5 -6.5h74q4 -19 4 -45q0 -15 -3 -36t-12 -43.5t-26.5 -44t-45.5 -37.5q-12 -7 -12 -20v-25q0 -9 7 -16t17 -7h346q10 0 16.5 7t6.5 16v37q0 10 -6.5 17t-16.5 7z" />
    <glyph glyph-name="star_empty" unicode="&#xf006;" horiz-adv-x="1555" 
d="M1539 814q25 -35 7 -73q-8 -17 -24.5 -27.5t-36.5 -10.5h-135v-602q0 -11 -8.5 -19t-19.5 -8t-19 8t-8 19v624q0 14 9.5 23.5t23.5 9.5h157q6 0 8.5 3t3.5 5q1 1 1.5 4.5t-1.5 8.5l-315 291l-3 3q-4 5 -10 5h-95q-18 0 -31 13t-13 31v110h-187v-112q0 -17 -13 -29.5
t-30 -12.5h-407q-6 0 -10 -5l-3 -3l-322 -291q-4 -10 -1 -13q1 -2 4 -5t8 -3h162q11 0 19 -7.5t8 -18.5v-870q0 -26 18.5 -44.5t44.5 -18.5h851q11 0 19 -8t8 -19q0 -12 -8 -20t-19 -8h-851q-24 0 -45.5 9.5t-37.5 25.5t-25.5 37.5t-9.5 45.5v841h-134q-20 0 -36.5 11
t-24.5 28q-9 18 -7 37t15 35l3 4l323 293q10 10 23.5 16t27.5 6h395v112q0 19 12 31t29 12h212q18 0 31 -13t13 -32v-110h84q31 0 52 -24l315 -293zM1495 -203q13 -13 13 -31t-13 -32l-47 -46q-13 -14 -31 -14t-31 14l-367 368q-10 8 -13 22q-49 -34 -107 -53t-122 -19
q-83 0 -155.5 31.5t-126.5 85.5t-85.5 126.5t-31.5 155.5t31.5 156t85.5 127t126.5 85.5t155.5 31.5t156 -31.5t127 -85.5t85.5 -127t31.5 -156q0 -64 -19 -122t-53 -107q14 -2 23 -12zM433 405q0 -71 27 -134t73.5 -109.5t109.5 -73.5t134 -27q72 0 134.5 27t109.5 73.5
t74 109.5t27 134q0 72 -27 134.5t-74 109.5t-109.5 74t-134.5 27q-71 0 -134 -27t-109.5 -74t-73.5 -109.5t-27 -134.5z" />
    <glyph glyph-name="user" unicode="&#xf007;" horiz-adv-x="1629" 
d="M1288 -254h-950q-26 0 -48.5 9.5t-39 26.5t-26.5 39t-10 48v879h-140q-20 0 -37.5 10.5t-26.5 29.5t-7 39t16 36l3 3l337 306q22 25 54 25h412v117q0 19 13 31.5t31 12.5h221q19 0 32.5 -13t13.5 -33v-115h87q34 0 54 -25l330 -306q2 -2 3 -4q13 -16 15 -36t-7 -38
q-9 -19 -26.5 -29.5t-37.5 -10.5h-142v-879q0 -26 -9.5 -48t-26.5 -39t-39.5 -26.5t-48.5 -9.5zM63 826q-3 -5 -2.5 -8t1.5 -5t3.5 -4.5t8.5 -2.5h169q12 0 20.5 -8.5t8.5 -21.5v-907q0 -27 19.5 -46.5t46.5 -19.5h950q28 0 47.5 19.5t19.5 46.5v902q0 14 10 24.5t25 10.5
h164q10 0 12 7q1 2 1.5 5t-1.5 8l-329 305l-3 3q-4 5 -11 5h-98q-20 0 -33.5 13.5t-13.5 33.5v115h-196v-117q0 -19 -13 -32t-31 -13h-425q-8 0 -10 -5l-3 -3zM814 19q-13 0 -20 9l-329 328q-1 2 -1.5 2t-1.5 1q-34 35 -52 79t-18 92q0 50 19 94t51.5 77t76.5 52t94 19
q53 0 99.5 -21.5t81.5 -59.5q35 38 81.5 59.5t99.5 21.5q50 0 94 -19t77 -52t52 -77t19 -94q0 -48 -18.5 -92t-52.5 -79q-1 -1 -1.5 -1t-1.5 -2l-329 -328q-8 -9 -20 -9zM509 394l305 -305l305 305l3 3q28 27 42.5 61t14.5 72t-14.5 72t-39.5 59t-58.5 39.5t-71.5 14.5
q-48 0 -89.5 -23t-67.5 -64q-9 -14 -24 -14t-24 14q-26 41 -67.5 64t-89.5 23q-38 0 -71.5 -14.5t-58.5 -39.5t-39.5 -59t-14.5 -72t14.5 -72t42.5 -61z" />
    <glyph glyph-name="film" unicode="&#xf008;" horiz-adv-x="1672" 
d="M1672 906q2 -12 -5 -21.5t-19 -11.5h-4q-11 0 -18.5 6.5t-8.5 17.5l-24 141l-745 -745q-8 -8 -19.5 -8t-19.5 8l-321 321l-434 -435q-10 -8 -20 -8q-12 0 -20 8t-8 20t8 20l454 454q8 8 20 8t20 -8l321 -321l725 726l-142 23q-11 2 -18 11.5t-5 20.5t11.5 18t20.5 5
l196 -32h1q1 0 1.5 -0.5t1.5 -0.5t1 -1h1q2 0 3 -1l1 -1q1 0 1 -1q1 0 2 -1l2 -1v-1l2 -2q1 0 1 -2h1q0 -2 1 -2q0 -1 1 -2q0 -1 1 -1v-2v-3q1 0 1 -1zM119 718q-20 0 -36.5 11t-25.5 28q-9 19 -6.5 38.5t15.5 35.5q1 1 1 1.5t2 1.5l328 297q10 12 23.5 18t28.5 6h400v114
q0 18 12.5 30.5t30.5 12.5h215q18 0 31.5 -13t13.5 -32v-112h85q31 0 53 -24l86 -81q8 -8 8.5 -19.5t-7.5 -19.5t-19.5 -8.5t-19.5 7.5l-88 81l-3 3q-5 5 -10 5h-96q-19 0 -32 13t-13 32v112h-191v-114q0 -18 -12.5 -30.5t-30.5 -12.5h-413q-5 0 -10 -5l-3 -3l-328 -297
q-2 -4 -1.5 -7t1.5 -5t3.5 -5t7.5 -3h165q11 0 19.5 -8t8.5 -20v-123q0 -11 -8.5 -19.5t-19.5 -8.5q-12 0 -20 8.5t-8 19.5v95h-137zM1613 830q12 -16 14 -35.5t-7 -37.5q-8 -18 -25 -28.5t-37 -10.5h-138v-854q0 -25 -9.5 -46.5t-25.5 -38t-38 -26t-47 -9.5h-924
q-25 0 -47 9.5t-38 26t-25.5 38t-9.5 46.5v397q0 12 8 20t20 8q11 0 19.5 -8t8.5 -20v-397q0 -26 18.5 -45t45.5 -19h924q27 0 45.5 19t18.5 45v876q0 14 10 24t24 10h160q6 0 8.5 3t3.5 5t1.5 5t-1.5 7l-37 32q-8 8 -9 20t7 20t19.5 9t20.5 -7l38 -34z" />
    <glyph glyph-name="th_large" unicode="&#xf009;" horiz-adv-x="1611" 
d="M993 888q0 -38 -14.5 -71.5t-39.5 -58.5t-58.5 -39.5t-71.5 -14.5t-72 14.5t-59 39.5t-39.5 58.5t-14.5 71.5t14.5 71.5t39.5 59t59 40t72 14.5t71.5 -14.5t58.5 -40t39.5 -59t14.5 -71.5zM681 888q0 -27 10 -50t27.5 -40t40.5 -27t50 -10q26 0 49 10t40.5 27t27.5 40
t10 50q0 26 -10 49t-27.5 40.5t-40.5 27.5t-49 10q-27 0 -50 -10t-40.5 -27.5t-27.5 -40.5t-10 -49zM809 158q-40 0 -67 32q-30 36 -71 88t-85 113.5t-87 128.5t-77 133t-55 127.5t-21 111.5q0 96 36.5 180.5t99 147t147 99t180.5 36.5t180 -36.5t147 -99t99.5 -147
t36.5 -180.5q0 -50 -21 -111.5t-55.5 -127.5t-77.5 -133t-87 -128.5t-85 -113.5t-71 -88q-27 -32 -66 -32zM809 1298q-84 0 -158 -32t-129 -87t-87 -129t-32 -158q0 -47 22 -107t57.5 -124.5t79 -130.5t86 -124.5t79.5 -105.5t60 -74q5 -7 11.5 -8.5t10.5 -1.5t10 1.5
t12 8.5q22 27 59.5 74t80 105.5t86 124.5t79 130.5t57.5 124.5t22 107q0 84 -32 158t-87.5 129t-129 87t-157.5 32zM1610 -170q2 -4 2 -12q0 -32 -21.5 -53.5t-53.5 -21.5h-1457q-31 0 -53 21.5t-22 53.5q0 4 2 12l228 539q12 31 34 50t52 19h160q12 0 21 -8.5t9 -21.5
q0 -11 -9 -20t-21 -9h-159q-14 0 -22 -12.5t-9 -15.5l-226 -538q2 -11 15 -11h1457q12 0 16 11l-227 538q-1 3 -7.5 15.5t-22.5 12.5h-160q-12 0 -20.5 9t-8.5 20q0 13 8.5 21.5t20.5 8.5h154q29 0 55.5 -20t37.5 -49z" />
    <glyph glyph-name="th" unicode="&#xf00a;" horiz-adv-x="1626" 
d="M1534 1369q19 0 35.5 -7t29 -19.5t20 -29.5t7.5 -36v-1443q0 -38 -27 -64.5t-65 -26.5h-1442q-38 0 -64.5 26.5t-26.5 64.5v1443q0 19 7 36t19.5 29.5t29 19.5t35.5 7h1442zM92 1287q-10 0 -10 -10v-1443q0 -10 10 -10h1442q11 0 11 10v1443q0 10 -11 10h-1442z" />
    <glyph glyph-name="th_list" unicode="&#xf00b;" horiz-adv-x="1055" 
d="M349 -252q-4 0 -12 2q-20 9 -17 31l85 691h-362q-18 0 -26 17q-8 16 3 30l659 863q14 17 34 9q21 -8 18 -31l-85 -691h362q18 0 26 -16q8 -17 -3 -31l-659 -863q-9 -11 -23 -11zM102 531h336q12 0 22 -10q9 -10 7 -23l-76 -618l558 731h-336q-13 0 -22 10q-8 10 -7 22
l76 618z" />
    <glyph glyph-name="ok" unicode="&#xf00c;" horiz-adv-x="1186" 
d="M1164 -258h-1142q-10 0 -16 7q-7 6 -7 16q1 5 1 13q1 7 1 13v13v1217v189q0 10 6.5 16.5t16.5 6.5h65q15 0 30 -0.5t30 -0.5q26 0 46.5 0.5t39.5 1.5q49 3 79 25q17 11 32 26.5t30 32.5q7 8 13.5 15t14.5 15q6 6 16 6h346q10 0 17 -7l75 -79q35 -35 86 -35h38h180
q10 0 16.5 -6.5t6.5 -16.5v-192v-1214q0 -7 0.5 -13t0.5 -13q0 -2 0.5 -4.5t0.5 -4.5v-5q0 -9 -6.5 -15.5t-16.5 -6.5zM46 -213h1094q0 5 -0.5 8.5t-0.5 8.5v1214v169h-157h-39q-72 2 -118 50l-69 72h-326q-5 -5 -10 -11t-10 -11q-16 -17 -32.5 -34.5t-36.5 -31.5t-47 -22
t-56 -10q-39 -3 -89 -3q-15 0 -30 0.5t-31 0.5h-41v-166v-1217v-8.5t-1 -8.5zM302 319q-10 0 -17 7l-72 77q-7 7 -6.5 16t7.5 16t16.5 6.5t15.5 -7.5l52 -54q27 48 61.5 97.5t81.5 91.5q7 7 16.5 6.5t15.5 -8.5q7 -7 6.5 -16t-7.5 -16q-48 -43 -82.5 -94.5t-63.5 -103.5
q-1 -2 -1.5 -2.5t-1.5 -2.5l-2 -3q-7 -9 -17 -10h-2zM940 488h-236q-11 0 -19.5 8.5t-8.5 20.5q0 11 8.5 19.5t19.5 8.5h236q12 0 20.5 -8.5t8.5 -19.5q0 -12 -8.5 -20.5t-20.5 -8.5zM940 358h-236q-11 0 -19.5 8.5t-8.5 20.5t8.5 20.5t19.5 8.5h236q12 0 20.5 -8.5
t8.5 -20.5t-8.5 -20.5t-20.5 -8.5zM302 695q-11 0 -17 8l-72 76q-7 7 -6.5 16t7.5 16t16.5 6.5t15.5 -7.5l52 -54q27 48 61.5 97.5t81.5 91.5q7 7 16.5 6.5t15.5 -7.5q7 -8 6.5 -17t-7.5 -16q-48 -43 -82.5 -94.5t-63.5 -103.5q-1 -1 -3 -5l-2 -3q-6 -8 -17 -10h-2zM940 864
h-236q-11 0 -19.5 8.5t-8.5 20.5t8.5 20t19.5 8h236q12 0 20.5 -8t8.5 -20t-8.5 -20.5t-20.5 -8.5zM940 735h-236q-11 0 -19.5 8t-8.5 20t8.5 20.5t19.5 8.5h236q12 0 20.5 -8.5t8.5 -20.5t-8.5 -20t-20.5 -8zM302 -57q-11 0 -17 7l-72 77q-7 7 -6.5 16t7.5 16t16.5 6.5
t15.5 -7.5l52 -54q27 48 61.5 97.5t81.5 91.5q7 6 16.5 6t15.5 -8q7 -7 6.5 -16t-7.5 -16q-48 -44 -82.5 -95t-63.5 -103l-1.5 -3l-1.5 -3l-2 -2q-6 -8 -17 -10h-2zM940 112h-236q-11 0 -19.5 8.5t-8.5 19.5q0 12 8.5 20.5t19.5 8.5h236q12 0 20.5 -8.5t8.5 -20.5
q0 -11 -8.5 -19.5t-20.5 -8.5zM940 -17h-236q-11 0 -19.5 8t-8.5 20t8.5 20.5t19.5 8.5h236q12 0 20.5 -8.5t8.5 -20.5t-8.5 -20t-20.5 -8z" />
    <glyph glyph-name="remove" unicode="&#xf00d;" horiz-adv-x="1622" 
d="M579 656q-41 0 -72 18q-17 10 -44.5 28.5t-60.5 42.5t-69 51.5t-69.5 54t-63 50t-48.5 40.5q-7 7 -7.5 16t5.5 17q6 7 15.5 7.5t16.5 -5.5q20 -18 49.5 -42t63 -50.5t69 -53t67.5 -49.5t57.5 -40.5t40.5 -26.5q41 -23 96 -5q9 3 17.5 -1t11.5 -13q2 -9 -2 -17.5
t-13 -11.5q-30 -10 -60 -10zM388 162q-9 0 -14 4q-7 5 -25.5 18t-44.5 31t-57.5 39.5l-63 43t-61 42t-51.5 35.5q-20 14 -34 23.5t-19 12.5q-8 5 -9.5 14.5t3.5 17.5t14.5 9.5t17.5 -3.5q5 -4 18.5 -13.5t33.5 -23.5q37 -25 85.5 -58t94 -64t80.5 -55.5l45 -31.5
q8 -5 9 -14.5t-4 -17.5q-8 -9 -18 -9zM934 -253q-35 0 -60 22q-11 10 -20.5 19.5t-18.5 19.5l-2 3q-7 8 -8 16.5t0 13.5q1 10 8 16t16 5q10 -2 16 -8.5t5 -15.5q8 -10 16.5 -18.5t16.5 -15.5q16 -14 36 -12q22 3 33 20q11 14 9.5 30.5t-12.5 29.5l-51 54q-8 8 -15 15.5
t-15 15.5q-5 5 -9 10t-8 12q-3 6 -3 11.5t1 9.5v2q0 11 7 18q8 7 18 5h3q4 0 9.5 -0.5t10.5 -4.5q7 -4 12.5 -9t10.5 -9q26 -26 51.5 -52.5t51.5 -53.5q26 -24 55 -12q29 13 29 47q-2 18 -17 35q-23 24 -46 47.5t-45 48.5l-2 2q-6 6 -14 18.5t-4 33.5q2 12 14 17q9 5 21 -2
q2 -2 3.5 -2.5t3.5 -1.5q5 -3 8.5 -5.5t8.5 -7.5q27 -26 57.5 -56t62.5 -61q30 -30 61 -15q21 11 26 34q5 26 -17 49l-8 8q-21 22 -42.5 44.5t-42.5 45.5q-2 2 -6 9t-7 15t-2.5 17t7.5 16q8 7 14 8.5t11 1.5q11 -1 18 -7t11 -10q1 -1 1 -1.5t1 -1.5q23 -21 45 -42.5
t43 -43.5l11 -10q16 -18 39 -18q19 0 33 14q14 15 13.5 35.5t-17.5 36.5l-43 43q-1 1 -2 1v1l-6 6l-37 37q-7 6 -7 15.5t7 16.5t16 7t16 -7l30.5 -30.5t13.5 -12.5v-1l1 -1q4 -3 6 -6l37 -37q15 -15 23 -32.5t8.5 -35.5t-6.5 -35.5t-21 -31.5q-26 -27 -64 -29q-18 0 -36 8
q8 -28 4 -50t-17.5 -39.5t-34.5 -27.5q-44 -20 -87 4q1 -3 1 -6.5v-6.5q1 -30 -14 -54.5t-42 -35.5q-23 -10 -46.5 -7.5t-43.5 16.5q5 -36 -17 -66q-24 -33 -65 -38h-10zM1400 199h-8q-28 1 -48.5 14.5t-33.5 27.5l-195 192l-133 131q-7 7 -7 16.5t7 16.5q7 6 16 6t16 -6
l133 -132q49 -48 97 -96t97 -96q29 -28 52 -28q21 -1 42 1.5t41 5.5q20 2 41 6t41 7q9 2 18 3.5t18 3.5t16.5 -3.5t9.5 -14.5t-3.5 -17t-14.5 -10l-36 -6q-20 -4 -41.5 -8t-42.5 -7q-19 -2 -39.5 -4.5t-42.5 -2.5zM599 448q-31 0 -58 16t-43 45q-11 21 -13 43.5t4 43.5
t19.5 38.5t34.5 29.5q98 56 195 110.5t195 109.5q17 9 37.5 17.5t44.5 7.5q46 0 93 -38l15 -12q9 -8 14.5 -12.5t9 -7.5t6 -5l7.5 -6l33 -28q28 -25 67 -17q40 8 79.5 17t78.5 17l74 17q2 0 5 0.5t6 0.5l5 1q9 2 16.5 -4t9.5 -15q1 -10 -4.5 -17t-14.5 -9l-6 -1q-5 0 -7 -1
l-74 -16q-40 -9 -79 -17.5t-79 -16.5q-60 -14 -107 26l-33 28l-7.5 6t-6 5t-8.5 7.5t-14 12.5l-15 12q-34 28 -65 28q-14 0 -27.5 -5t-30.5 -15l-390 -219q-26 -15 -34 -42t6 -52q13 -26 40.5 -34.5t53.5 5.5q7 3 13.5 6.5t12.5 6.5t11.5 6t11.5 6q8 5 17 1.5t13 -11.5
q5 -8 2 -17t-11 -13q-6 -3 -11.5 -6t-10.5 -6q-8 -4 -14.5 -7t-13.5 -7q-25 -13 -53 -13zM424 28q-7 0 -15 6l-20 18q-11 10 -17 23t-7 27t3.5 27.5t14.5 24.5l82 91q20 23 49.5 24.5t52.5 -18.5l19 -17q21 -19 24 -47t-14 -51q-1 0 -4 -4t-22 -24q-6 -8 -15 -8.5t-16 6.5
q-8 6 -8.5 15t6.5 17l3.5 4t7.5 8.5t7.5 9t4.5 5.5q6 8 5 17.5t-9 17.5l-20 17q-8 8 -18.5 7t-18.5 -9l-82 -92q-8 -8 -7 -18.5t9 -18.5l20 -18q8 -6 8 -15.5t-6 -16.5q-8 -8 -17 -8zM517 -55q-9 0 -15 6l-20 18q-22 20 -24 49.5t18 52.5l60 67q21 22 50 24q14 1 27.5 -4
t24.5 -14l20 -18q22 -21 24 -50q2 -31 -18 -52q-7 -7 -16 -7.5t-17 5.5q-7 7 -7.5 16t6.5 16q7 11 6 19q0 11 -8 19l-20 18q-11 7 -19 6q-12 0 -19 -9l-60 -67q-8 -8 -7 -19t9 -18l20 -18q8 -7 8.5 -16t-6.5 -16q-6 -8 -17 -8zM610 -138q-9 0 -15 6l-20 18q-22 20 -24 49.5
t18 51.5l61 67q20 23 49.5 24.5t51.5 -18.5l20 -18q23 -21 24 -49q2 -31 -18 -52l-16 -19q-7 -7 -16 -7.5t-17 5.5q-7 7 -7.5 16t6.5 17l16 18q8 8 6 19q0 12 -8 18l-20 18q-8 8 -19 7t-18 -9l-60 -67q-8 -8 -7 -19t9 -18l19 -18q8 -7 8.5 -16t-6.5 -17q-6 -7 -17 -7z
M703 -222q-4 0 -7.5 2t-7.5 4l-20 18q-22 20 -23.5 49.5t18.5 52.5l44 49q20 22 49.5 24t51.5 -18l20 -18q11 -10 17 -23t7 -27t-3.5 -27.5t-14.5 -24.5q-7 -7 -16 -7.5t-16 5.5q-8 7 -8.5 16t6.5 16q8 8 7 19t-9 19l-20 18q-8 7 -19 6t-18 -9l-44 -49q-8 -8 -7 -18.5
t9 -18.5l20 -18q7 -6 7.5 -15.5t-6.5 -16.5q-6 -8 -17 -8z" />
    <glyph glyph-name="zoom_in" unicode="&#xf00e;" horiz-adv-x="1585" 
d="M1429 -89h-1273q-32 0 -60.5 12.5t-49.5 34.5t-33 51.5t-12 62.5v944q0 33 12 62.5t33 51t49.5 34.5t60.5 13h1273q32 0 60 -13t49 -34.5t33.5 -51t12.5 -62.5v-944q0 -33 -12.5 -62.5t-33.5 -51.5t-49 -34.5t-60 -12.5zM156 1121q-21 0 -39.5 -8.5t-32 -22.5t-21 -33
t-7.5 -41v-944q0 -22 7.5 -41t21 -33.5t32 -23t39.5 -8.5h1273q21 0 39 8.5t31.5 23t21.5 33.5t8 41v944q0 22 -8 41t-21.5 33t-31.5 22.5t-39 8.5h-1273zM792 32q-19 0 -35.5 7t-29 19.5t-19.5 29.5t-7 36q0 38 26.5 64.5t64.5 26.5t65 -26.5t27 -64.5q0 -19 -7.5 -36
t-20 -29.5t-29 -19.5t-35.5 -7zM792 160q-15 0 -25.5 -11t-10.5 -25q0 -15 10.5 -26t25.5 -11t25.5 11t10.5 26q0 14 -10.5 25t-25.5 11zM1259 -257h-933q-12 0 -20 8t-8 20q0 11 8 19t20 8h933q11 0 19 -8t8 -19q0 -12 -8 -20t-19 -8zM1556 285h-1528q-11 0 -19 8.5
t-8 19.5t8 19.5t19 8.5h1528q12 0 20 -8.5t8 -19.5t-8 -19.5t-20 -8.5zM792 -257q-11 0 -19.5 8t-8.5 20v168q0 11 8.5 19t19.5 8t19.5 -8t8.5 -19v-168q0 -12 -8.5 -20t-19.5 -8z" />
    <glyph glyph-name="zoom_out" unicode="&#xf010;" horiz-adv-x="1276" 
d="M922 761h-677q-12 0 -20.5 8.5t-8.5 21.5v326q0 12 8.5 20.5t20.5 8.5h677q12 0 20.5 -8.5t8.5 -20.5v-326q0 -13 -8.5 -21.5t-20.5 -8.5zM275 820h618v268h-618v-268zM30 -99q-13 0 -21.5 8.5t-8.5 20.5v1321q0 22 8.5 41.5t23.5 34.5t34.5 23.5t42.5 8.5h949
q22 0 42 -8.5t35 -23.5t23.5 -34.5t8.5 -41.5v-1181q0 -23 -8.5 -42.5t-23.5 -34t-35 -23t-42 -8.5q-12 0 -20.5 8.5t-8.5 20.5t8.5 20.5t20.5 8.5q21 0 35.5 14.5t14.5 35.5v1181q0 20 -14.5 35t-35.5 15h-949q-21 0 -35.5 -15t-14.5 -35v-1321q0 -12 -8.5 -20.5
t-20.5 -8.5zM1244 -254h-1104q-27 0 -50 14t-37 38l-41 76q-13 23 -12.5 49t14.5 49t36.5 35.5t48.5 12.5h959q12 0 20.5 -8.5t8.5 -20.5t-8.5 -20.5t-20.5 -8.5h-959q-22 0 -35 -20q-5 -10 -5.5 -20.5t5.5 -20.5l40 -75q11 -21 36 -21h1104q13 0 21.5 -8.5t8.5 -21.5
q0 -12 -8.5 -20.5t-21.5 -8.5zM1087 -143h-933q-12 0 -21 8.5t-9 20.5t9 20.5t21 8.5h933q27 0 50 10t40.5 27.5t27.5 41t10 49.5v1175q0 12 8.5 20.5t20.5 8.5q13 0 21.5 -8.5t8.5 -20.5v-1175q0 -39 -14.5 -72.5t-40 -59t-59.5 -40t-73 -14.5z" />
    <glyph glyph-name="off" unicode="&#xf011;" horiz-adv-x="1577" 
d="M1495 -258h-1413q-33 0 -57 24t-24 57v1003q0 34 24 57.5t57 23.5h1413q34 0 57.5 -23.5t23.5 -57.5v-1003q0 -33 -23.5 -57t-57.5 -24zM82 852q-11 0 -18 -7.5t-7 -18.5v-1003q0 -11 7 -18t18 -7h1413q11 0 18.5 7t7.5 18v1003q0 11 -7.5 18.5t-18.5 7.5h-1413z
M1549 675h-1520q-11 0 -19.5 8.5t-8.5 19.5t8.5 19.5t19.5 8.5h1520q11 0 19 -8.5t8 -19.5t-8 -19.5t-19 -8.5zM146 789q0 -11 -8.5 -19t-19.5 -8q-12 0 -20 8t-8 19q0 12 8 20t20 8q11 0 19.5 -8t8.5 -20zM234 789q0 -11 -8 -19t-20 -8q-11 0 -19 8t-8 19q0 12 8 20t19 8
q12 0 20 -8t8 -20zM323 789q0 -11 -8.5 -19t-19.5 -8t-19.5 8t-8.5 19q0 12 8.5 20t19.5 8t19.5 -8t8.5 -20zM810 678h-369q-11 0 -19.5 8t-8.5 20v104q0 12 8.5 20t19.5 8h369q12 0 20 -8t8 -20v-104q0 -12 -8 -20t-20 -8zM469 734h313v49h-313v-49zM1179 678h-369
q-11 0 -19.5 8t-8.5 20v104q0 12 8.5 20t19.5 8h369q12 0 20 -8t8 -20v-104q0 -12 -8 -20t-20 -8zM838 734h314v49h-314v-49zM1549 678h-370q-11 0 -19 8t-8 20v104q0 12 8 20t19 8h370q11 0 19 -8t8 -20v-104q0 -12 -8 -20t-19 -8zM1207 734h314v49h-314v-49z" />
    <glyph glyph-name="signal" unicode="&#xf012;" horiz-adv-x="1626" 
d="M1288 -256h-951q-26 0 -48 10t-39 26.5t-26.5 39t-9.5 48.5v878h-140q-21 0 -38 11t-26 30t-7 39t15 36q2 2 4 3l337 306q20 25 54 25h411v117q0 18 13 31t31 13h221q20 0 33 -13t13 -33v-115h88q16 0 29.5 -7t24.5 -19l330 -306q1 -1 1.5 -1t1.5 -2q12 -16 14 -36
t-7 -39q-9 -18 -26 -29t-37 -11h-142v-878q0 -26 -10 -48.5t-26.5 -39t-39.5 -26.5t-48 -10zM62 824q-2 -4 -1.5 -7t0.5 -5q2 -2 4.5 -5t8.5 -3h168q13 0 21 -8.5t8 -20.5v-907q0 -27 19.5 -46.5t46.5 -19.5h951q27 0 46.5 19.5t19.5 46.5v901q0 15 10.5 25t24.5 10h165
q5 0 8 2.5t4 4.5t1.5 5.5t-2.5 7.5l-328 306q-2 1 -4 3q-3 5 -10 5h-99q-19 0 -32.5 13.5t-13.5 33.5v114h-196v-116q0 -19 -13 -32t-32 -13h-424q-6 0 -11 -5l-3 -3zM880 741q0 -13 -6 -25q-4 -10 -14 -20t-21 -14q-10 -5 -26 -5t-25 5q-11 4 -21 14t-14 20q-5 13 -5 25
q0 13 5 26q4 11 14 21q5 5 10 8t11 6q9 5 25 5t26 -5q14 -7 21 -14q10 -10 14 -21q6 -12 6 -26zM865 617v-428h-103v428h103z" />
    <glyph glyph-name="cog" unicode="&#xf013;" horiz-adv-x="1614" 
d="M807 1356q111 0 214 -29t192.5 -81.5t163 -126t126 -163t81.5 -193t29 -214.5t-29 -214t-81.5 -192.5t-126 -163t-163 -126t-192.5 -81.5t-214 -29t-214.5 29t-193 81.5t-163 126t-126 163t-81.5 192.5t-29 214q0 112 29 215t81.5 192.5t126 163t163 126t192.5 81.5
t215 29zM807 -150q96 0 185.5 25t167 70.5t141 109.5t109 141.5t70.5 167t25 185.5q0 97 -25 186t-70.5 166.5t-109 141.5t-141 109.5t-167 70.5t-185.5 25q-145 0 -272 -55t-222 -150t-150 -222t-55 -272q0 -96 25 -185.5t70.5 -167t109.5 -141.5t141.5 -109.5t166.5 -70.5
t186 -25zM671 888q20 14 45.5 10t39.5 -23l254 -320q1 0 1 -2q2 -1 4 -5q0 -2 2 -4q2 -4 2 -6l2 -5v-5q0 -2 0.5 -3t0.5 -3q0 -1 -0.5 -2t-0.5 -3v-5q-1 -2 -1 -3t-1 -2q0 -2 -2 -6q-2 -2 -2 -4q-2 -4 -4 -6l-1 -1l-254 -321q-14 -19 -39.5 -22.5t-45.5 10.5l-4 2t-4 3
q-16 14 -18 35t12 38l228 287l-228 288q-15 19 -11 41.5t25 36.5z" />
    <glyph glyph-name="trash" unicode="&#xf014;" horiz-adv-x="1633" 
d="M1291 -257h-951q-26 0 -48.5 10t-39 26.5t-26.5 39t-10 48.5v878h-140q-20 0 -37.5 11t-26.5 30q-8 19 -6 39t15 36l3 3l338 306q10 12 24 18.5t29 6.5h412v117q0 18 13 31t31 13h221q19 0 32.5 -13t13.5 -33v-115h87q16 0 30 -7t25 -19l329 -306q3 -2 3 -3
q13 -16 15 -36t-7 -39q-9 -18 -26 -29t-38 -11h-142v-878q0 -26 -9.5 -48.5t-26.5 -39t-39.5 -26.5t-47.5 -10zM65 823q-3 -4 -2.5 -7t1.5 -5q2 -2 4.5 -5t7.5 -3h169q12 0 20.5 -8.5t8.5 -20.5v-907q0 -27 19.5 -46.5t46.5 -19.5h951q27 0 46.5 19.5t19.5 46.5v901
q0 15 10.5 25t24.5 10h164q6 0 8.5 2.5l4.5 4.5q0 2 0.5 5.5t-1.5 7.5l-329 306l-3 3q-5 5 -11 5h-98q-20 0 -33.5 13.5t-13.5 33.5v114h-196v-116q0 -19 -12.5 -32t-31.5 -13h-425q-7 0 -10 -5l-3 -3zM1143 894h-630q-14 0 -24 10t-10 24q0 15 10 25t24 10h630q14 0 24 -10
t10 -25q0 -14 -10 -24t-24 -10zM1143 735h-630q-14 0 -24 10t-10 24t10 24.5t24 10.5h630q14 0 24 -10.5t10 -24.5t-10 -24t-24 -10zM1143 575h-630q-14 0 -24 10.5t-10 24.5t10 24t24 10h630q14 0 24 -10t10 -24t-10 -24.5t-24 -10.5zM1131 416h-618q-14 0 -24 10t-10 25
q0 14 10 24t24 10h618q14 0 24.5 -10t10.5 -24q0 -15 -10.5 -25t-24.5 -10zM1143 257h-630q-14 0 -24 10t-10 24t10 24.5t24 10.5h630q14 0 24 -10.5t10 -24.5t-10 -24t-24 -10zM1143 98h-630q-14 0 -24 10t-10 24t10 24.5t24 10.5h630q14 0 24 -10.5t10 -24.5t-10 -24
t-24 -10zM1143 -62h-630q-14 0 -24 10.5t-10 24.5t10 24.5t24 10.5h630q14 0 24 -10.5t10 -24.5t-10 -24.5t-24 -10.5z" />
    <glyph glyph-name="home" unicode="&#xf015;" horiz-adv-x="1629" 
d="M1289 -257h-951q-26 0 -48.5 10t-39 26.5t-26.5 39t-10 48.5v878h-140q-20 0 -37.5 11t-26.5 30t-6.5 39t15.5 36l3 3l337 306q22 25 54 25h412v117q0 18 13 31t31 13h221q19 0 32.5 -13t13.5 -33v-115h87q33 0 54 -26l330 -306q2 -1 3 -3q13 -16 15 -36t-7 -39
q-9 -18 -26 -29t-38 -11h-142v-878q0 -26 -9.5 -48.5t-26.5 -39t-39.5 -26.5t-47.5 -10zM63 823q-3 -4 -2.5 -7t1.5 -5t3.5 -5t8.5 -3h169q12 0 20.5 -8.5t8.5 -20.5v-907q0 -27 19.5 -46.5t46.5 -19.5h951q27 0 46.5 19.5t19.5 46.5v901q0 15 10.5 25t24.5 10h164
q6 0 8.5 2.5t3.5 4.5t1.5 5.5t-1.5 7.5l-329 306l-3 3q-5 5 -11 5h-98q-20 0 -33.5 13.5t-13.5 33.5v114h-196v-116q0 -19 -12.5 -32t-31.5 -13h-425q-7 0 -10 -5l-3 -3zM826 13q-91 0 -170.5 34.5t-139 94t-94 139t-34.5 170.5q0 90 34.5 170t94 139t139 93.5t170.5 34.5
q90 0 170 -34.5t139.5 -93.5t94 -139t34.5 -170q0 -91 -34.5 -170.5t-94 -139t-139.5 -94t-170 -34.5zM826 819q-77 0 -144 -29t-117 -79t-79 -117t-29 -143q0 -77 29 -144t79 -117t117 -79t144 -29q76 0 143 29t117.5 79t79.5 117t29 144q0 76 -29 143t-79.5 117t-117.5 79
t-143 29zM552 142q-13 0 -25 10q-10 11 -10 25t10 24l548 548q11 11 24.5 11t24.5 -11q11 -10 11 -24t-11 -25l-548 -548q-10 -10 -24 -10z" />
    <glyph glyph-name="file_alt" unicode="&#xf016;" horiz-adv-x="1625" 
d="M1291 -257h-950q-26 0 -48.5 10t-39 26.5t-26.5 39t-10 48.5v878h-140q-20 0 -37.5 11t-26.5 30t-7 39t16 36l3 3l337 306q22 25 54 25h412v117q0 18 13 31t31 13h221q19 0 32.5 -13t13.5 -33v-115h87q33 0 54 -26l330 -306q1 -1 1.5 -1t1.5 -2q13 -16 15 -36t-7 -39
q-9 -18 -26.5 -29t-37.5 -11h-142v-878q0 -26 -9.5 -48.5t-26.5 -39t-39.5 -26.5t-48.5 -10zM66 823q-3 -4 -2.5 -7t1.5 -5t3.5 -5t8.5 -3h169q12 0 20.5 -8.5t8.5 -20.5v-907q0 -27 19.5 -46.5t46.5 -19.5h950q28 0 47.5 19.5t19.5 46.5v901q0 15 10 25t25 10h164
q6 0 8.5 2.5t3.5 4.5t1.5 5.5t-1.5 7.5l-329 306l-3 3q-5 5 -11 5h-98q-20 0 -33.5 13.5t-13.5 33.5v114h-196v-116q0 -19 -13 -32t-31 -13h-425q-7 0 -10 -5l-3 -3zM1063 907h-400q-14 0 -24 10t-10 25q0 14 10 24t24 10h400q14 0 24 -10t10 -24q0 -15 -10 -25t-24 -10z
M499 907h-20q-14 0 -24 10t-10 25q0 14 10 24t24 10h20q14 0 24 -10t10 -24q0 -15 -10 -25t-24 -10zM1178 748h-515q-14 0 -24 10t-10 24t10 24.5t24 10.5h515q14 0 24.5 -10.5t10.5 -24.5t-10.5 -24t-24.5 -10zM499 748h-20q-14 0 -24 10t-10 24t10 24.5t24 10.5h20
q14 0 24 -10.5t10 -24.5t-10 -24t-24 -10zM1017 588h-354q-14 0 -24 10.5t-10 24.5t10 24.5t24 10.5h354q14 0 24 -10.5t10 -24.5t-10 -24.5t-24 -10.5zM499 588h-20q-14 0 -24 10.5t-10 24.5t10 24.5t24 10.5h20q14 0 24 -10.5t10 -24.5t-10 -24.5t-24 -10.5zM1063 429
h-400q-14 0 -24 10.5t-10 24.5t10 24t24 10h400q14 0 24 -10t10 -24t-10 -24.5t-24 -10.5zM499 429h-20q-14 0 -24 10.5t-10 24.5t10 24t24 10h20q14 0 24 -10t10 -24t-10 -24.5t-24 -10.5zM947 270h-284q-14 0 -24 10t-10 25q0 14 10 24t24 10h284q15 0 25 -10t10 -24
q0 -15 -10 -25t-25 -10zM499 270h-20q-14 0 -24 10t-10 25q0 14 10 24t24 10h20q14 0 24 -10t10 -24q0 -15 -10 -25t-24 -10zM1063 111h-400q-14 0 -24 10t-10 24t10 24.5t24 10.5h400q14 0 24 -10.5t10 -24.5t-10 -24t-24 -10zM499 111h-20q-14 0 -24 10t-10 24t10 24.5
t24 10.5h20q14 0 24 -10.5t10 -24.5t-10 -24t-24 -10zM1178 -48h-515q-14 0 -24 10t-10 24t10 24.5t24 10.5h515q14 0 24.5 -10.5t10.5 -24.5t-10.5 -24t-24.5 -10zM499 -48h-20q-14 0 -24 10t-10 24t10 24.5t24 10.5h20q14 0 24 -10.5t10 -24.5t-10 -24t-24 -10z" />
    <glyph glyph-name="time" unicode="&#xf017;" horiz-adv-x="1625" 
d="M1288 -253h-950q-26 0 -48.5 10t-39 26.5t-26.5 39t-10 48.5v878h-140q-21 0 -38 11t-26 30t-7 39t16 36q1 1 1 1.5t2 1.5l337 306q22 25 54 25h412v117q0 18 12.5 31t31.5 13h220q20 0 33.5 -13t13.5 -33v-115h87q33 0 54 -26l330 -306q1 -1 1.5 -1t1.5 -2
q13 -16 15 -36t-7 -39q-10 -18 -27 -29t-37 -11h-142v-878q0 -26 -10 -48.5t-26.5 -39t-39.5 -26.5t-48 -10zM63 827q-3 -4 -2.5 -7t1.5 -5t3.5 -5t8.5 -3h169q12 0 20 -8.5t8 -20.5v-907q0 -27 19.5 -46.5t47.5 -19.5h950q28 0 47.5 19.5t19.5 46.5v901q0 15 10 25t25 10
h164q6 0 8.5 2.5t3.5 4.5t1.5 5.5t-1.5 7.5l-329 306q-2 1 -2 1.5t-1 1.5q-5 5 -11 5h-99q-19 0 -32.5 13.5t-13.5 33.5v114h-196v-116q0 -19 -13 -32t-31 -13h-425q-7 0 -10 -5q-1 -1 -2 -1.5t-2 -1.5zM826 198q-68 0 -129.5 20t-115.5 50.5t-98 66t-76 67t-50.5 53.5
t-20.5 25q-8 9 -8 20.5t8 21.5q2 3 20.5 25t50.5 53t76 66.5t98 66t115.5 50.5t129.5 20q67 0 128.5 -20t115 -50.5t98 -66t76.5 -66.5t50.5 -53t20.5 -25q8 -10 8 -21.5t-8 -20.5q-2 -3 -20.5 -25t-50.5 -53.5t-76.5 -67t-98 -66t-115 -50.5t-128.5 -20zM408 501
q13 -16 36 -39t53 -49t67 -52t79 -47t88 -34t95 -13q48 0 94 13t88 34t78.5 47t66.5 52t52.5 49t36.5 39q-14 15 -36.5 38.5t-52.5 49t-66.5 51.5t-78.5 47t-88 34t-94 13q-49 0 -95 -13t-88 -34t-79 -47t-67 -51.5t-52.5 -49t-36.5 -38.5zM826 328q-36 0 -67.5 13.5t-55 37
t-37 55t-13.5 67.5t13.5 67t37 54.5t55 37t67.5 13.5t67 -13.5t54.5 -37t37 -54.5t13.5 -67t-13.5 -67.5t-37 -55t-54.5 -37t-67 -13.5zM826 604q-22 0 -41 -8t-33 -22t-22 -33t-8 -40t8 -40t22 -33.5t33 -22.5t41 -8q21 0 39.5 8t33 22.5t22.5 33.5t8 40t-8 40t-22.5 33
t-33 22t-39.5 8z" />
    <glyph glyph-name="road" unicode="&#xf018;" horiz-adv-x="1626" 
d="M547 459q13 0 22 -9.5t9 -22.5t-9 -22.5t-22 -9.5q-14 0 -23 9.5t-9 22.5t9 22.5t23 9.5zM828 177q14 0 23 -9.5t9 -22.5t-9 -22t-23 -9q-13 0 -22 9t-9 22t9 22.5t22 9.5zM828 677q-13 0 -22 9t-9 23q0 13 9 22t22 9q14 0 23 -9t9 -22q0 -14 -9 -23t-23 -9zM1110 395
q-13 0 -22.5 9.5t-9.5 22.5t9.5 22.5t22.5 9.5t22.5 -9.5t9.5 -22.5t-9.5 -22.5t-22.5 -9.5zM828 850q87 0 163 -33t132.5 -89.5t89.5 -132.5t33 -162q0 -87 -33 -163t-89.5 -132.5t-132.5 -89.5t-163 -33q-86 0 -162 33t-132.5 89.5t-89.5 132.5t-33 163q0 86 33 162
t89.5 132.5t132.5 89.5t162 33zM828 72q75 0 140.5 28.5t114 77.5t77 114.5t28.5 140.5q0 74 -28.5 139.5t-77 114t-114 77t-140.5 28.5t-140.5 -28.5t-114 -77t-77 -114t-28.5 -139.5q0 -75 28.5 -140.5t77 -114.5t114 -77.5t140.5 -28.5zM954 698q8 -4 12 -13t0 -17
l-102 -235q-3 -6 -9 -12l-201 -144q-7 -5 -13 -5q-12 0 -19 10q-6 8 -4.5 17.5t9.5 14.5l195 141l101 231q5 9 13.5 13t17.5 -1zM1613 858q12 -16 14.5 -36t-7.5 -39q-9 -18 -26 -29t-37 -11h-142v-878q0 -26 -10 -48.5t-26.5 -39t-39.5 -26.5t-48 -10h-951q-26 0 -48 10
t-39 26.5t-26.5 39t-9.5 48.5v878h-140q-21 0 -38 11t-26 30t-7 39t16 36q0 1 3 3l337 306q20 25 54 25h411v117q0 18 13 31t31 13h221q20 0 33 -13t13 -33v-115h88q33 0 54 -26l330 -306q1 -1 1.5 -1t1.5 -2zM1569 808q1 2 1.5 5.5t-2.5 7.5l-328 306l-4 3q-3 5 -10 5h-99
q-19 0 -32.5 13.5t-13.5 33.5v114h-196v-116q0 -19 -13 -32t-32 -13h-424q-6 0 -11 -5l-3 -3l-337 -306q-2 -4 -1.5 -7t1.5 -5t3.5 -5t8.5 -3h169q12 0 20 -8.5t8 -20.5v-907q0 -27 19.5 -46.5t46.5 -19.5h951q27 0 46.5 19.5t19.5 46.5v901q0 15 10.5 25t24.5 10h165
q5 0 8 2.5t4 4.5z" />
    <glyph glyph-name="download_alt" unicode="&#xf019;" horiz-adv-x="1626" 
d="M1241 751l-544 -569q-2 -2 -5 0l-110 105q-3 2 0 5l544 569q3 2 5 0l110 -105q2 -3 0 -5zM645 145q-19 -10 -41 -21.5t-43 -23t-40.5 -22t-34.5 -18.5q-8 -4 -14 1.5t-2 13.5l78 166q3 7 10.5 6.5t10.5 -8.5q7 -20 23 -42t51 -31q8 -2 9 -9.5t-7 -11.5zM1289 -257h-951
q-26 0 -48 10t-39 26.5t-26.5 39t-9.5 48.5v878h-141q-20 0 -37.5 11t-26.5 30q-8 19 -6 39t15 36l3 3l338 306q20 25 54 25h411v117q0 18 13 31t31 13h221q20 0 33 -13t13 -33v-115h88q16 0 29.5 -7t24.5 -19l330 -306q1 -1 1.5 -1t1.5 -2q12 -16 14 -36t-7 -39
q-9 -18 -26 -29t-37 -11h-142v-878q0 -26 -10 -48.5t-26.5 -39t-39.5 -26.5t-48 -10zM63 823q-2 -4 -2 -7t1 -5q2 -2 4.5 -5t7.5 -3h169q12 0 20.5 -8.5t8.5 -20.5v-907q0 -27 19.5 -46.5t46.5 -19.5h951q27 0 46.5 19.5t19.5 46.5v901q0 15 10.5 25t24.5 10h165
q5 0 7.5 2.5l4.5 4.5q2 7 -1 13l-329 306l-3 3q-3 5 -10 5h-99q-20 0 -33.5 13.5t-13.5 33.5v114h-195v-116q0 -19 -13 -32t-32 -13h-424q-6 0 -11 -5l-3 -3z" />
    <glyph glyph-name="download" unicode="&#xf01a;" horiz-adv-x="1622" 
d="M523 292q-8 0 -17 7l-72 78q-7 7 -6.5 16t7.5 16t16.5 6.5t15.5 -7.5l52 -54q28 48 62.5 97.5t81.5 92.5q7 6 16.5 6t15.5 -8q7 -7 6.5 -16.5t-7.5 -15.5q-48 -44 -83 -95.5t-64 -103.5q0 -2 -1 -3t-2 -3l-2 -2q-6 -9 -17 -11h-2zM1164 462h-236q-12 0 -20.5 8.5
t-8.5 20.5t8.5 20.5t20.5 8.5h236q12 0 20.5 -8.5t8.5 -20.5t-8.5 -20.5t-20.5 -8.5zM1164 332h-236q-12 0 -20.5 8.5t-8.5 20.5t8.5 20.5t20.5 8.5h236q12 0 20.5 -8.5t8.5 -20.5t-8.5 -20.5t-20.5 -8.5zM523 670q-9 0 -17 8l-72 77q-7 7 -6.5 16t7.5 16t16.5 6.5
t15.5 -7.5l52 -54q28 48 62.5 97.5t81.5 92.5q7 6 16.5 6t15.5 -8q7 -7 6.5 -16.5t-7.5 -15.5q-48 -44 -83 -95.5t-64 -103.5q0 -2 -1 -3t-2 -3l-2 -2q-7 -10 -17 -10q-1 -1 -2 -1zM1164 840h-236q-12 0 -20.5 8.5t-8.5 20.5t8.5 20.5t20.5 8.5h236q12 0 20.5 -8.5
t8.5 -20.5t-8.5 -20.5t-20.5 -8.5zM1164 710h-236q-12 0 -20.5 8.5t-8.5 20.5t8.5 20.5t20.5 8.5h236q12 0 20.5 -8.5t8.5 -20.5t-8.5 -20.5t-20.5 -8.5zM523 -86q-8 0 -17 7l-72 77q-7 7 -6.5 16.5t7.5 16.5t16.5 6.5t15.5 -7.5l52 -54q28 48 62.5 97.5t81.5 92.5
q7 6 16.5 6t15.5 -8q7 -7 6.5 -16.5t-7.5 -16.5q-48 -43 -83 -94.5t-64 -103.5q0 -2 -1 -3t-2 -3l-2 -2q-6 -9 -17 -11h-2zM1164 84h-236q-12 0 -20.5 8.5t-8.5 20.5t8.5 20.5t20.5 8.5h236q12 0 20.5 -8.5t8.5 -20.5t-8.5 -20.5t-20.5 -8.5zM1164 -46h-236q-12 0 -20.5 8.5
t-8.5 20.5t8.5 20t20.5 8h236q12 0 20.5 -8t8.5 -20t-8.5 -20.5t-20.5 -8.5zM1285 -255h-951q-26 0 -48 10t-39 26.5t-26.5 39t-9.5 48.5v878h-141q-20 0 -37.5 11t-26.5 30q-8 19 -6 39t15 36l3 3l338 306q10 12 24 18.5t29 6.5h412v117q0 18 13 31t31 13h221
q19 0 32.5 -13t13.5 -33v-115h87q16 0 30 -7t25 -19l329 -306q3 -2 3 -3q13 -16 15 -36t-7 -39q-9 -18 -26 -29t-38 -11h-142v-878q0 -26 -9.5 -48.5t-26.5 -39t-39.5 -26.5t-47.5 -10zM59 825q-2 -4 -2 -7t1 -5q2 -2 4.5 -5t7.5 -3h169q12 0 20.5 -8.5t8.5 -20.5v-907
q0 -27 19.5 -46.5t46.5 -19.5h951q27 0 46.5 19.5t19.5 46.5v901q0 15 10.5 25t24.5 10h164q6 0 8.5 2.5l4.5 4.5q0 2 0.5 5.5t-1.5 7.5l-329 306l-3 3q-5 5 -11 5h-98q-20 0 -33.5 13.5t-13.5 33.5v114h-196v-116q0 -19 -12.5 -32t-31.5 -13h-425q-7 0 -10 -5l-3 -3z" />
    <glyph glyph-name="upload" unicode="&#xf01b;" horiz-adv-x="1626" 
d="M906 786q69 0 129.5 -26t105.5 -71t71 -105.5t26 -129.5t-26 -129t-71 -105t-105.5 -71t-129.5 -26t-129 26t-105 71t-71 105t-26 129t26 129.5t71 105.5t105 71t129 26zM906 205q51 0 96.5 19.5t79.5 53t53.5 79t19.5 97.5q0 51 -19.5 96.5t-53.5 79t-79.5 53
t-96.5 19.5t-96.5 -19.5t-79 -53t-53.5 -79t-20 -96.5q0 -52 20 -97.5t53.5 -79t79 -53t96.5 -19.5zM906 642q39 0 73 -15t59.5 -40.5t40.5 -59.5t15 -73t-15 -73t-40.5 -60t-59.5 -41t-73 -15t-73 15t-59.5 41t-40 60t-14.5 73t14.5 73t40 59.5t59.5 40.5t73 15zM1368 826
q25 0 46.5 -9t37.5 -25t25.5 -37.5t9.5 -45.5v-594q0 -24 -9.5 -45.5t-25.5 -37t-37.5 -25t-46.5 -9.5h-1089q-25 0 -46.5 9.5t-37.5 25t-25 37t-9 45.5v594q0 24 9 45.5t25 37.5t37.5 25t46.5 9h6v42q0 17 12 29t29 12h124q17 0 29.5 -12t12.5 -29v-42h111l77 104
q17 24 27.5 36.5t19.5 18.5t17.5 7t20.5 1h281q13 0 21.5 -1t17.5 -7t20.5 -18.5t28.5 -36.5l75 -104h159zM1404 709q0 14 -10.5 24.5t-25.5 10.5h-159h-42l-25 34l-75 104q-17 19 -21 27h-278q-3 -4 -8.5 -11t-13.5 -18l-77 -102l-24 -34h-42h-352v-663h1117q15 0 25.5 10
t10.5 24v594z" />
    <glyph glyph-name="inbox" unicode="&#xf01c;" horiz-adv-x="1609" 
d="M965 -103q12 0 20.5 -8.5t8.5 -20.5t-8.5 -20.5t-20.5 -8.5h-143q-12 0 -20.5 8.5t-8.5 20.5t8.5 20.5t20.5 8.5h143zM965 -8q12 0 20.5 -8.5t8.5 -20.5t-8.5 -20.5t-20.5 -8.5h-143q-12 0 -20.5 8.5t-8.5 20.5t8.5 20.5t20.5 8.5h143zM416 1032q-12 0 -20.5 8.5
t-8.5 20.5v195q0 20 8 39q12 29 37 45.5t56 16.5h630h6l14 -2q16 -3 31 -12q1 0 1 -1q12 -7 18 -13l1 -1l11 -13q1 -1 1 -2q9 -12 13 -25.5t5 -28.5v-3v-195q0 -12 -8.5 -20.5t-19.5 -8.5h-775zM444 1090h718v164q-1 1 -1 2q0 12 -6 24q-1 0 -1 0.5t-1 0.5q0 3 -4 5l-1 1
q-1 2 -7 6h-1q-8 5 -13 5q-2 1 -5 1h-5h-629q-13 0 -24 -7t-16 -19q-4 -10 -4 -17v-166zM643 266q-12 0 -20.5 8.5t-8.5 19.5q0 13 8.5 21.5t20.5 8.5h322q12 0 20.5 -8.5t8.5 -21.5q0 -11 -8.5 -19.5t-20.5 -8.5h-322zM643 171q-12 0 -20.5 8.5t-8.5 20.5t8.5 20.5
t20.5 8.5h322q12 0 20.5 -8.5t8.5 -20.5t-8.5 -20.5t-20.5 -8.5h-322zM246 849q21 0 39.5 -8t32 -22t21.5 -32.5t8 -39.5t-8 -39.5t-21.5 -32t-32 -21.5t-39.5 -8t-39.5 8t-32 21.5t-21.5 32t-8 39.5t8 39.5t21.5 32.5t32 22t39.5 8zM246 703q18 0 31 13t13 31t-13 31
t-31 13t-31 -13t-13 -31t13 -31t31 -13zM1506 994q21 0 39.5 -8t32 -21.5t21.5 -32t8 -39.5v-679q0 -21 -8 -39.5t-21.5 -32t-32 -21.5t-39.5 -8h-243q-12 0 -20 8.5t-8 20.5v334h-863v-334q0 -12 -8.5 -20.5t-20.5 -8.5h-242q-21 0 -39.5 8t-32.5 21.5t-22 32t-8 39.5v679
q0 21 8 39.5t22 32t32.5 21.5t39.5 8h1405zM1549 893q0 18 -12.5 30.5t-30.5 12.5h-1405q-19 0 -31.5 -12.5t-12.5 -30.5v-679q0 -18 12.5 -31t31.5 -13h213v335q0 12 8.5 20.5t20.5 8.5h920q12 0 20.5 -8.5t8.5 -20.5v-335h214q18 0 30.5 13t12.5 31v679zM643 77
q-12 0 -20.5 8.5t-8.5 20.5t8.5 20.5t20.5 8.5h322q12 0 20.5 -8.5t8.5 -20.5t-8.5 -20.5t-20.5 -8.5h-322zM1126 424h57v-57v-530q0 -19 -7.5 -36t-20 -29.5t-29.5 -20t-36 -7.5h-413q-29 0 -55.5 11.5t-46.5 31.5l-107 107q-21 20 -32 47t-11 56v370v57h58h643zM615 -172
l9 -8v123h-123l7 -8zM1126 367h-643v-366h170q12 0 20.5 -8.5t8.5 -20.5v-168v-2h408q15 0 25.5 10.5t10.5 24.5v530z" />
    <glyph glyph-name="play_circle" unicode="&#xf01d;" horiz-adv-x="1619" 
d="M811 1q-137 0 -281 58.5t-287 173.5q-53 43 -95.5 83.5t-72.5 73t-47 52.5t-18 22q-5 7 -5 15.5t5 15.5q1 2 18 22t47 52.5t72.5 73t95.5 83.5q143 115 287 173.5t281 58.5t281 -58.5t287 -173.5q53 -43 96 -83.5t73 -73t46.5 -52.5t17.5 -22q5 -7 5 -15.5t-5 -15.5
q-1 -2 -17.5 -22t-46.5 -52.5t-73 -73t-96 -83.5q-143 -115 -287 -173.5t-281 -58.5zM64 480q17 -20 53 -59.5t88.5 -87t119 -97t144 -90.5t164 -67t178.5 -26t178.5 26t164 67t144 90.5t119 97t88.5 87t53 59.5q-17 20 -53 59t-88.5 86.5t-119 97t-144 90.5t-164 67
t-178.5 26t-178.5 -26t-164 -67t-144 -91t-119 -97t-88.5 -86.5t-53 -58.5zM811 220q-54 0 -101 20.5t-82 56t-55.5 82.5t-20.5 101q0 53 20.5 100t55.5 82.5t82 56t101 20.5t101 -20.5t82.5 -56t56 -82.5t20.5 -100q0 -54 -20.5 -101t-56 -82.5t-82.5 -56t-101 -20.5z
M811 687q-43 0 -80.5 -16.5t-65.5 -44.5t-44.5 -65.5t-16.5 -80.5t16.5 -81t44.5 -66t65.5 -44.5t80.5 -16.5t80.5 16.5t66 44.5t45 66t16.5 81t-16.5 80.5t-45 65.5t-66 44.5t-80.5 16.5z" />
    <glyph glyph-name="repeat" unicode="&#xf01e;" horiz-adv-x="1615" 
d="M1063 560q-21 -28 -48.5 -40.5t-57 -18.5t-58 -10t-51 -14t-36 -30.5t-12.5 -60.5q1 -36 15 -57.5t36.5 -33t52.5 -14.5t61.5 -2t63.5 4.5t60 4.5q0 -45 2 -91t-3.5 -89.5t-23 -83.5t-57.5 -72q0 51 -17 83.5t-46.5 52.5t-67 30t-78.5 17t-82.5 13.5t-77 19t-62.5 34
t-40 57.5t-16 81t4.5 90t27.5 84t53 63q13 9 33.5 12t44 4t48 1t45.5 1t35.5 5.5t19.5 15.5q24 51 24 85t-16 56t-45 34.5t-63 19.5t-68.5 11.5t-63 11t-46 17.5t-17.5 31q0 105 27.5 160.5t77 79.5t119 26.5t153.5 2.5q-22 -31 -42.5 -59t-34 -53t-17 -45t8 -35t41 -23.5
t82.5 -8.5q40 0 68.5 -20.5t46.5 -54t26 -74.5t7 -81.5t-10 -77t-26 -59.5z" />
    <glyph glyph-name="refresh" unicode="&#xf021;" horiz-adv-x="1615" 
d="M1250 737l-505 -504q-13 -13 -30.5 -19.5t-35.5 -6.5t-35.5 6.5t-30.5 19.5l-251 253q-27 27 -27 66q0 38 27 67q13 14 30 20.5t36 6.5q39 0 66 -27l185 -184l438 435q13 13 30.5 19.5t36 6.5t35.5 -6.5t31 -19.5q14 -14 20.5 -31t6.5 -35q0 -19 -6.5 -36.5t-20.5 -30.5z
" />
    <glyph glyph-name="list_alt" unicode="&#xf022;" horiz-adv-x="1612" 
d="M807 1154h268v-268h-268v268zM874 953h134v134h-134v-134zM135 818h268v-268h-268v268zM202 617h134v134h-134v-134zM135 482h268v-268h-268v268zM202 281h134v134h-134v-134zM135 146h268v-268h-268v268zM202 -55h134v134h-134v-134zM1479 1356q28 0 52.5 -10.5
t42.5 -28.5t28.5 -42.5t10.5 -52.5v-1344q0 -28 -10.5 -52.5t-28.5 -43t-42.5 -29t-52.5 -10.5h-1344q-28 0 -52.5 10.5t-43 29t-29 43t-10.5 52.5v1344q0 28 10.5 52.5t29 42.5t43 28.5t52.5 10.5h1075h269zM1546 1222q0 28 -19.5 47.5t-47.5 19.5v-1408l-135 198
l-134 -198v1408h-1075q-29 0 -48.5 -19.5t-19.5 -47.5v-1344q0 -29 19.5 -48.5t48.5 -19.5h1344q28 0 47.5 19.5t19.5 48.5v1344zM471 146h268v-268h-268v268zM538 -55h134v134h-134v-134zM807 482h268v-268h-268v268zM874 281h134v134h-134v-134zM471 818h268v-268h-268
v268zM538 617h134v134h-134v-134zM471 1154h268v-268h-268v268zM538 953h134v134h-134v-134zM807 818h268v-268h-268v268zM874 617h134v134h-134v-134zM471 482h268v-268h-268v268zM538 281h134v134h-134v-134zM807 146h268v-268h-268v268zM874 -55h134v134h-134v-134z
M135 1154h268v-268h-268v268zM202 953h134v134h-134v-134z" />
    <glyph glyph-name="lock" unicode="&#xf023;" horiz-adv-x="1546" 
d="M793 637q13 0 22 -9t9 -22t-9 -22t-22 -9h-202q-13 0 -22 9t-9 22t9 22t22 9h202zM1499 742q23 -21 36 -49.5t13 -60.5v-715q0 -22 -6 -52t-23.5 -57t-50.5 -46t-87 -19h-1213q-61 0 -95 23t-50.5 53t-20 58.5t-3.5 39.5v715q0 67 48 110l646 584l2 2q37 29 77 29
q18 0 37 -7t37 -19l7 -5zM59 621h1l1 -1l241 -233v403q0 23 9 43.5t24 35.5t35.5 24t43.5 9h584q36 0 70.5 -14.5t60.5 -40.5l152 -159q26 -26 39.5 -60t13.5 -72v-83l152 147q0 1 1 1v11q0 39 -29 65l-646 583q-5 4 -10.5 7t-10.5 5l-7 1q-2 2 -5.5 2h-6.5q-10 0 -13 -2
l-6 -1q-8 -3 -19 -12l-646 -583q-29 -26 -29 -65v-11zM1110 258l162 157v141v5h-241q-12 0 -20.5 9t-8.5 22v246v4h-4h-584q-21 0 -36.5 -15.5t-15.5 -36.5v-462l74 -70l264 193q68 46 143 1zM71 527v-541l315 234zM1084 804q-4 5 -10 10t-12 9v-200h193q-4 7 -8.5 12.5
t-10.5 11.5zM1160 220l315 -234v541zM1470 -137q10 32 -12 62l-363 269l-285 207q-18 12 -39 12q-18 0 -37 -12l-628 -465q-21 -14 -28 -34t0 -41q7 -19 29 -37.5t61 -18.5h1213q40 0 61.5 19t27.5 39zM793 740q13 0 22 -8t9 -21t-9 -22t-22 -9h-202q-13 0 -22 9t-9 22t9 21
t22 8h202z" />
    <glyph glyph-name="flag" unicode="&#xf024;" horiz-adv-x="1484" 
d="M333 1239v-11h-63v11q0 24 9 45.5t25 37.5t37 25.5t45 9.5h618q38 0 74 -15.5t63 -43.5l160 -166q27 -29 41.5 -64.5t14.5 -74.5v-295q-14 3 -27 3h-36v292v6h2q13 0 22 9t9 23q0 13 -9 22t-22 9h-20q-5 8 -9.5 14.5t-10.5 12.5l-160 166q-6 6 -12 10.5t-13 9.5v16
q0 13 -9 22t-22 9q-12 0 -20.5 -8t-10.5 -20q-1 0 -2.5 0.5t-2.5 0.5h-618q-22 0 -37.5 -16.5t-15.5 -39.5zM1294 999h-118q-1 2 -3 4l-57 59h160h20q13 0 22 -9t9 -22q0 -14 -9 -23t-22 -9h-2zM1071 1291q0 13 -9 22t-22 9q-12 0 -20.5 -8t-10.5 -20v-3v-118l3 -3l59 -61
v166v16zM156 699q-3 0 -6.5 -0.5t-7.5 -0.5v413q0 24 9 45.5t25 37.5t37 25t45 9h12h63h543q37 0 71.5 -14.5t61.5 -40.5l3 -3l59 -61l45 -47l57 -59q2 -2 3 -4q25 -27 38.5 -61.5t13.5 -72.5v-164h-62v164q0 2 -0.5 3t-0.5 3h3q13 0 22 9t9 22q0 14 -9 23t-22 9h-21
q-7 12 -19 26l-161 167q-5 5 -11 10t-13 9v17q0 13 -9 21.5t-23 8.5q-12 0 -20 -8t-10 -19h-5h-618q-23 0 -38.5 -16t-15.5 -39v-412h-48zM445 996q-13 0 -22 9t-9 23q0 13 9 22t22 9h213q14 0 23 -9t9 -22q0 -14 -9 -23t-23 -9h-213zM445 886q-13 0 -22 9t-9 22t9 22t22 9
h213q14 0 23 -9t9 -22t-9 -22t-23 -9h-213zM880 1163v1q0 1 0.5 1t0.5 1q2 11 10 19t20 8q14 0 23 -8.5t9 -21.5v-17v-212h204h21q13 0 22 -9t9 -23q0 -13 -9 -22t-22 -9h-3h-254q-13 0 -22 9t-9 22v261zM1483 -112q3 -21 -4 -46q-14 -44 -54 -71t-91 -27h-1181v32v30h1181
q38 0 58.5 18t26.5 37q3 9 3 17l12 -10q8 -7 19 -7q8 0 14 3q14 7 16 24zM153 -224v-32q-51 0 -91 26.5t-54 70.5q-4 12 -5 23.5t0 23.5q3 -17 16 -23q5 -4 14 -4q10 0 19 6l13 10q0 -5 0.5 -8.5t1.5 -8.5q6 -18 27 -36t59 -18v-30zM19 -135q-13 6 -16 23q0 1 -0.5 2t-0.5 2
v664q0 5 2 9l4 8q-2 -32 11.5 -61t42.5 -51l2 -2v-504l340 256l53 -39l-392 -295l-13 -10q-9 -6 -19 -6q-9 0 -14 4zM1426 464q28 20 41.5 48.5t11.5 60.5q6 -8 6 -17v-664l-2 -4q-2 -17 -16 -24q-6 -3 -14 -3q-11 0 -19 7l-12 10l-381 301l52 39l330 -261v504zM62 461
q-29 22 -42.5 51t-11.5 61q1 8 2 15t3 14q13 41 48 66.5t81 29.5q4 0 7.5 0.5t6.5 0.5h48l962 2h62h66h36q13 0 27 -3q42 -6 73 -31t44 -63q5 -13 5 -31q2 -32 -11.5 -60.5t-41.5 -48.5l-3 -3l-330 -243l-52 -39l-224 -165q-33 -23 -70 -23q-35 0 -72 21l-218 160l-53 39
l-340 248zM156 637q-37 0 -57.5 -18t-26.5 -36q-7 -20 0 -38.5t26 -32.5l612 -448q17 -10 35 -11t36 11l608 450q19 14 26 32.5t0 38.5q-6 19 -26.5 36t-58.5 17z" />
    <glyph glyph-name="headphones" unicode="&#xf025;" horiz-adv-x="1626" 
d="M432 682q27 0 50 -10t40 -27t27 -40.5t10 -50.5q0 -26 -10 -49t-27 -40t-40 -27t-50 -10q-26 0 -49.5 10t-40.5 27t-27 40t-10 49q0 27 10 50.5t27 40.5t40.5 27t49.5 10zM432 489q28 0 47.5 19.5t19.5 45.5q0 29 -19.5 48.5t-47.5 19.5q-27 0 -46.5 -19.5t-19.5 -48.5
q0 -26 19.5 -45.5t46.5 -19.5zM1245 682q26 0 49 -10t40.5 -27t27.5 -40.5t10 -50.5q0 -26 -10 -49t-27.5 -40t-40.5 -27t-49 -10t-49.5 10t-40.5 27t-27 40t-10 49q0 27 10 50.5t27 40.5t40.5 27t49.5 10zM1245 489q28 0 47 19.5t19 45.5q0 29 -19 48.5t-47 19.5
q-27 0 -46.5 -19.5t-19.5 -48.5q0 -26 19.5 -45.5t46.5 -19.5zM839 682q26 0 49 -10t40.5 -27t27.5 -40.5t10 -50.5q0 -26 -10 -49t-27.5 -40t-40.5 -27t-49 -10t-49.5 10t-40.5 27t-27 40t-10 49q0 27 10 50.5t27 40.5t40.5 27t49.5 10zM839 489q27 0 46.5 19.5t19.5 45.5
q0 29 -19.5 48.5t-46.5 19.5q-28 0 -47.5 -19.5t-19.5 -48.5q0 -26 19.5 -45.5t47.5 -19.5zM1512 1083q24 0 44.5 -9t36 -24.5t24.5 -36.5t9 -44v-846q0 -23 -9 -43.5t-24.5 -36t-36 -24.5t-44.5 -9h-999v-271l-239 271h-160q-24 0 -44.5 9t-35.5 24.5t-24 36t-9 43.5v846
q0 23 9 44t24 36.5t35.5 24.5t44.5 9h1398zM1565 969q0 22 -15 37.5t-38 15.5h-1398q-22 0 -37.5 -15.5t-15.5 -37.5v-846q0 -23 15.5 -37.5t37.5 -14.5h160q27 0 45 -21l133 -151v111q0 25 17.5 43t43.5 18h999q23 0 38 14.5t15 37.5v846z" />
    <glyph glyph-name="volume_off" unicode="&#xf026;" horiz-adv-x="1657" 
d="M1471 385q-13 0 -21.5 8.5t-8.5 21.5q0 125 -48 238q-47 109 -131 194q-86 85 -195 132q-114 48 -238 48t-238 -48q-110 -47 -195 -132t-131 -194q-5 -11 -16.5 -16t-22.5 0q-12 5 -16.5 16.5t0.5 22.5q52 122 144 214q93 93 213 144q62 26 128.5 39t133.5 13t133.5 -13
t128.5 -39q60 -26 113.5 -61.5t99.5 -82.5q95 -95 144 -214q27 -63 40 -128t13 -133q0 -13 -8.5 -21.5t-21.5 -8.5zM829 -257q-139 0 -262 52q-60 26 -113 62t-100 82q-92 92 -144 214q-53 126 -53 262q0 12 8.5 21t21.5 9t21.5 -9t8.5 -21q0 -126 48 -238q47 -111 131 -195
q43 -42 91.5 -75t103.5 -56q114 -48 238 -48t238 48q55 23 103.5 56t91.5 75q84 84 131 195q5 11 16.5 15.5t22.5 -0.5q12 -5 16.5 -16t-0.5 -23q-49 -119 -144 -214q-93 -93 -213 -144q-123 -52 -262 -52zM1471 344q-12 0 -21 9l-153 153q-9 9 -9 21q0 13 9 22q9 8 21.5 8
t21.5 -8l153 -153q8 -10 8 -21q0 -12 -8 -22q-9 -9 -22 -9zM1471 344q-12 0 -21 9t-9 22q0 12 9 21l153 153q8 8 20.5 8t21.5 -8q9 -9 9 -22q0 -12 -9 -21l-152 -153q-9 -9 -22 -9zM340 232q-12 0 -22 9l-152 152q-9 9 -9 22q0 12 9 21t21 9t21 -9l153 -153q9 -9 9 -21
t-9 -21t-21 -9zM34 232q-12 0 -21 9t-9 21t9 21l153 153q9 9 21 9t21 -9t9 -21q0 -13 -9 -22l-153 -152q-8 -9 -21 -9z" />
    <glyph glyph-name="volume_down" unicode="&#xf027;" horiz-adv-x="1346" 
d="M369 955q-14 0 -23.5 9.5t-9.5 23.5t9.5 24t23.5 10h269q15 0 24.5 -10t9.5 -24t-9.5 -23.5t-24.5 -9.5h-269zM974 216q15 0 24.5 -10t9.5 -24t-9.5 -24t-24.5 -10h-605q-14 0 -23.5 10t-9.5 24t9.5 24t23.5 10h605zM369 1089q-14 0 -23.5 10t-9.5 24t9.5 23.5t23.5 9.5
h269q15 0 24.5 -9.5t9.5 -23.5t-9.5 -24t-24.5 -10h-269zM974 81q15 0 24.5 -9.5t9.5 -23.5t-9.5 -24t-24.5 -10h-605q-14 0 -23.5 10t-9.5 24t9.5 23.5t23.5 9.5h605zM974 753q15 0 24.5 -9.5t9.5 -23.5t-9.5 -24t-24.5 -10h-605q-14 0 -23.5 10t-9.5 24t9.5 23.5t23.5 9.5
h605zM974 350q15 0 24.5 -10t9.5 -24t-9.5 -23.5t-24.5 -9.5h-605q-14 0 -23.5 9.5t-9.5 23.5t9.5 24t23.5 10h605zM1276 1089q33 -33 50.5 -75t17.5 -89v-1045q0 -28 -10.5 -52.5t-29 -43t-43 -29t-52.5 -10.5h-1075q-28 0 -52.5 10.5t-42.5 29t-28.5 43t-10.5 52.5v1344
q0 27 10.5 51.5t28.5 43t42.5 29t52.5 10.5h777q47 0 89 -17.5t75 -50.5zM1027 1243q-16 16 -37 28v-267h266q-10 20 -27 37zM1277 925v12h-321q-14 0 -23.5 10t-9.5 24v315q0 2 0.5 2.5t0.5 2.5h-13h-777q-27 0 -47 -19.5t-20 -47.5v-1344q0 -29 20 -48.5t47 -19.5h1075
q29 0 48.5 19.5t19.5 48.5v1045zM974 619q15 0 24.5 -10t9.5 -24t-9.5 -23.5t-24.5 -9.5h-605q-14 0 -23.5 9.5t-9.5 23.5t9.5 24t23.5 10h605zM974 484q15 0 24.5 -9.5t9.5 -23.5t-9.5 -24t-24.5 -10h-605q-14 0 -23.5 10t-9.5 24t9.5 23.5t23.5 9.5h605z" />
    <glyph glyph-name="volume_up" unicode="&#xf028;" horiz-adv-x="1615" 
d="M807 235q17 0 28.5 -12t11.5 -29t-11.5 -28.5t-28.5 -11.5t-28 11.5t-11 28.5t11 29t28 12zM451 589q17 0 29 -11t12 -28t-12 -28t-29 -11t-28 11t-11 28t11 28t28 11zM807 865q-17 0 -28 12t-11 29t11 28.5t28 11.5t28.5 -11.5t11.5 -28.5t-11.5 -29t-28.5 -12z
M807 1075q72 0 139.5 -19t125.5 -53t106 -82t82.5 -106.5t53 -125.5t18.5 -139q0 -108 -41.5 -204t-112.5 -167.5t-166.5 -113t-204.5 -41.5q-108 0 -204 41.5t-167.5 113t-113 167.5t-41.5 204t41.5 204t113 167t167.5 112.5t204 41.5zM807 82q97 0 182 37t148.5 100.5
t100.5 148.5t37 182t-37 182t-100.5 148.5t-148.5 100.5t-182 37t-182 -37t-148.5 -100.5t-100.5 -148.5t-37 -182t37 -182t100.5 -148.5t148.5 -100.5t182 -37zM1556 705q23 0 40 -17t17 -40v-196q0 -24 -17 -40.5t-40 -16.5h-123h-5l-1 -5q-24 -86 -69 -163l-4 -4l4 -4
l88 -87q18 -18 18 -42t-18 -41l-138 -138q-8 -9 -18.5 -13t-21.5 -4q-25 0 -42 17l-91 91l-4 4l-4 -3q-74 -44 -159 -65l-5 -1v-6v-130q0 -23 -17 -40t-41 -17h-196q-23 0 -40 17t-17 40v130v6l-5 1q-86 21 -159 65l-5 3l-4 -4l-90 -91q-19 -17 -42 -17q-24 0 -41 17
l-138 138q-17 17 -17 41t17 42l88 87l4 4l-3 4q-46 75 -70 163l-1 5h-5h-122q-24 0 -41 16.5t-17 40.5v196q0 23 17 40t41 17h116h6l1 5q11 45 27.5 87.5t40.5 83.5l1 5l-3 3l-80 79q-17 19 -17 43q0 11 4.5 21.5t12.5 18.5l138 138q8 8 19 12.5t22 4.5q23 0 42 -17l77 -78
l4 -2l4 1q40 26 83.5 43.5t89.5 29.5l5 1v5v110q0 23 17 40t40 17h196q24 0 41 -17t17 -40v-110v-5l5 -1q45 -12 88.5 -29.5t83.5 -43.5l6 -1l2 2l78 78q19 17 42 17t40 -17l138 -138q8 -8 12.5 -18.5t4.5 -21.5q0 -24 -17 -43l-79 -79l-4 -3l3 -5q23 -41 39.5 -83t26.5 -87
l1 -6h6h117zM1556 648h-117h-51l-13 49q-9 42 -24.5 80.5t-35.5 73.5l-25 44l35 34l81 82l-138 137l-78 -77l-37 -37l-43 26q-37 23 -76 39.5t-81 27.5l-48 13v49v110h-196v-110v-49l-49 -13q-81 -21 -155 -67l-44 -26l-37 37l-77 77l-138 -137l81 -82l34 -34l-25 -44
q-20 -35 -35.5 -73.5t-25.5 -80.5l-12 -49h-51h-116v-196h122h49l13 -48q11 -38 27.5 -75t36.5 -72l26 -43l-35 -35l-89 -90l138 -138l91 91l36 35l43 -23q33 -20 69 -35t74 -25l49 -13v-50v-130h196v130v50l48 13q39 10 75 25t69 35l45 23l35 -35l91 -91l138 138l-89 90
l-36 35l26 43q43 69 64 147l13 48h49h123v196zM1123 550q0 17 11.5 28t28.5 11t28.5 -11t11.5 -28t-11.5 -28t-28.5 -11t-28.5 11t-11.5 28zM966 892q11 -5 15.5 -15.5t-0.5 -21.5l-129 -296q-2 -8 -9 -14q-1 -1 -1.5 -2t-2.5 -2l-252 -181q-6 -5 -17 -5q-12 0 -23 11
q-8 11 -6 23t12 19l248 179l126 290q6 11 17 15.5t22 -0.5z" />
    <glyph glyph-name="qrcode" unicode="&#xf029;" horiz-adv-x="1242" 
d="M372 799q26 0 45 -19t19 -45v-124q0 -26 -19 -43.5t-45 -17.5h-123q-26 0 -44.5 17.5t-18.5 43.5v124q0 26 18.5 45t44.5 19h123zM372 735h-123v-124h123v124zM372 489q26 0 45 -19t19 -45v-124q0 -26 -19 -43.5t-45 -17.5h-123q-26 0 -44.5 17.5t-18.5 43.5v124
q0 26 18.5 45t44.5 19h123zM372 425h-123v-124h123v124zM372 178q26 0 45 -18.5t19 -44.5v-124q0 -26 -19 -44t-45 -18h-123q-26 0 -44.5 18t-18.5 44v124q0 26 18.5 44.5t44.5 18.5h123zM372 115h-123v-124h123v124zM993 799q26 0 44.5 -19t18.5 -45v-124
q0 -26 -18.5 -43.5t-44.5 -17.5h-123q-26 0 -45 17.5t-19 43.5v124q0 26 19 45t45 19h123zM993 735h-123v-124h123v124zM993 489q26 0 44.5 -19t18.5 -45v-434q0 -26 -18.5 -44t-44.5 -18h-123q-26 0 -45 18t-19 44v434q0 26 19 45t45 19h123zM993 425h-123v-434h123v434z
M186 1170h870v-248h-870v248zM249 985h744v124h-744v-124zM682 178q26 0 45 -18.5t19 -44.5v-124q0 -26 -19 -44t-45 -18h-122q-26 0 -45 18t-19 44v124q0 26 19 44.5t45 18.5h122zM682 115h-122v-124h122v124zM1042 1356q41 0 77 -15.5t63 -42.5t43 -63t16 -77v-1216
q0 -41 -16 -77t-43 -63t-63 -42.5t-77 -15.5h-842q-41 0 -77 15.5t-63 42.5t-43 63t-16 77v1216q0 41 16 77t43 63t63 42.5t77 15.5h842zM1180 1158q0 28 -11 53t-30 44t-44 29.5t-53 10.5h-842q-28 0 -53 -10.5t-44 -29.5t-30 -44t-11 -53v-1216q0 -29 11 -53.5t30 -43.5
t44 -29.5t53 -10.5h842q28 0 53 10.5t44 29.5t30 43.5t11 53.5v1216zM682 799q26 0 45 -19t19 -45v-124q0 -26 -19 -43.5t-45 -17.5h-122q-26 0 -45 17.5t-19 43.5v124q0 26 19 45t45 19h122zM682 735h-122v-124h122v124zM682 489q26 0 45 -19t19 -45v-124q0 -26 -19 -43.5
t-45 -17.5h-122q-26 0 -45 17.5t-19 43.5v124q0 26 19 45t45 19h122zM682 425h-122v-124h122v124z" />
    <glyph glyph-name="barcode" unicode="&#xf02a;" horiz-adv-x="1346" 
d="M366 1091q-14 0 -23.5 9.5t-9.5 23.5t9.5 24t23.5 10h269q14 0 24 -10t10 -24t-10 -23.5t-24 -9.5h-269zM366 956q-14 0 -23.5 10t-9.5 24t9.5 23.5t23.5 9.5h269q14 0 24 -9.5t10 -23.5t-10 -24t-24 -10h-269zM1273 1090q33 -33 50.5 -75t17.5 -88v-1046
q0 -28 -10.5 -52.5t-29 -42.5t-43 -28.5t-52.5 -10.5h-1075q-28 0 -52.5 10.5t-42.5 28.5t-28.5 42.5t-10.5 52.5v1344q0 28 10.5 52.5t28.5 42.5t42.5 28.5t52.5 10.5h777q47 0 89 -17t74 -50zM1274 824h-1209h-1v-69h1h1209v69zM64 620h1h1209v67h-1209h-1v-67zM1024 1244
q-8 8 -17.5 15t-19.5 13v-266h266q-10 18 -27 37zM131 1292q-28 0 -47.5 -19.5t-19.5 -47.5v-333h1h1209v35q0 3 -0.5 6t-0.5 6h-320q-14 0 -23.5 9.5t-9.5 23.5v316v4h-12h-777zM1206 -186q28 0 48 19.5t20 47.5v672h-1209h-1v-67h1h666q14 0 24 -10t10 -24t-10 -23.5
t-24 -9.5h-666h-1v-68h1h666q14 0 24 -9.5t10 -23.5t-10 -24t-24 -10h-666h-1v-67h1h666q14 0 24 -10t10 -24t-10 -23.5t-24 -9.5h-666h-1v-67h1h666q14 0 24 -10t10 -24t-10 -24t-24 -10h-666h-1v-67h1h666q14 0 24 -9.5t10 -23.5t-10 -24t-24 -10h-666h-1
q0 -28 19.5 -47.5t47.5 -19.5h1075zM1181 -35q9 0 15.5 -6t6.5 -15v-34q0 -9 -6.5 -15t-15.5 -6h-315q-9 0 -15 6t-6 15v23q0 13 11 18q26 15 41.5 34.5t24 39.5t11.5 39.5t3 33.5q0 20 -5 40h-67q-9 0 -15 6.5t-6 14.5v28q0 9 5.5 15t14.5 6l49 2q-8 26 -14 53t-6 56
q0 75 45 120t120 45q85 0 139 -68q5 -7 4.5 -15t-6.5 -13l-25 -23q-6 -6 -15 -6t-15 8q-19 23 -38.5 32.5t-43.5 9.5q-23 0 -39.5 -8t-26.5 -20.5t-14.5 -29t-4.5 -32.5q0 -25 5.5 -48t13.5 -47q1 -3 1.5 -6.5t1.5 -6.5h125q8 0 14 -6.5t6 -14.5v-31q0 -8 -6 -14.5t-14 -6.5
h-109q3 -20 3 -40q0 -41 -9.5 -73t-29.5 -60h207z" />
    <glyph glyph-name="tag" unicode="&#xf02b;" horiz-adv-x="1652" 
d="M1004 170h-231q23 30 33 66t10 81q0 11 -0.5 22.5t-2.5 22.5h121q10 0 16.5 6.5t6.5 16.5v34q0 10 -6.5 16.5t-16.5 6.5h-138q-1 5 -5 15q-8 27 -14 53t-6 52q0 18 5 36.5t16 32.5t29.5 23t44.5 9t47.5 -11t43.5 -37q5 -6 16 -8q11 0 17 7l28 25q7 6 7 15t-5 16
q-60 76 -154 76q-85 0 -134.5 -49.5t-49.5 -134.5q0 -32 7 -61.5t16 -58.5l-55 -3q-10 0 -16.5 -6.5t-6.5 -16.5v-31q0 -10 7 -16.5t17 -6.5h75q2 -11 3 -22t1 -23q0 -16 -3 -37t-12 -43.5t-26.5 -44.5t-46.5 -38q-12 -7 -12 -20v-26q0 -9 6.5 -16t16.5 -7h351q10 0 16.5 7
t6.5 16v38q0 10 -6.5 17t-16.5 7zM1469 386q-12 0 -21 8.5t-9 21.5q0 125 -48 238q-47 109 -131 194q-42 43 -91 76t-103 56q-114 48 -238.5 48t-238.5 -48q-110 -47 -195 -132t-130 -194q-5 -11 -17 -16t-23 0t-16 16.5t0 22.5q52 122 144 214q93 93 214 144q62 26 128 39
t133 13t133.5 -13t128.5 -39q122 -52 214 -144q46 -47 82 -100.5t61 -113.5q27 -63 40 -128t13 -133q0 -13 -8.5 -21.5t-21.5 -8.5zM827 -256q-139 0 -261 52q-61 26 -114 62t-100 82q-92 92 -144 214q-53 126 -53 262q0 12 9 21t21 9q13 0 21.5 -9t8.5 -21q0 -126 48 -238
q47 -111 131 -195q43 -42 91.5 -75t103.5 -56q114 -48 238.5 -48t238.5 48q54 23 103 56t91 75q84 84 131 195q5 11 16.5 15.5t23.5 -0.5q11 -5 15.5 -16t-0.5 -23q-25 -60 -61 -113.5t-82 -100.5q-95 -93 -214 -144q-123 -52 -262 -52zM1469 345q-12 0 -21 9l-153 153
q-9 9 -9 21q0 13 9 22q9 8 21.5 8t21.5 -8l153 -153q8 -8 8 -21q0 -14 -8 -22q-9 -9 -22 -9zM1469 345q-12 0 -21 9t-9 22q0 12 9 21l153 153q9 8 21 8t21 -8q9 -9 9 -22q0 -12 -9 -21l-152 -153q-9 -9 -22 -9zM338 233q-12 0 -21 9l-153 152q-9 9 -9 22q0 12 9 21t21.5 9
t20.5 -9l153 -153q9 -9 9 -21t-9 -21t-21 -9zM32 233q-12 0 -21 9t-9 21t9 21l153 153q9 9 21.5 9t20.5 -9q9 -9 9 -21q0 -13 -9 -22l-152 -152q-9 -9 -22 -9z" />
    <glyph glyph-name="tags" unicode="&#xf02c;" horiz-adv-x="1346" 
d="M371 957q-14 0 -24 9t-10 23q0 15 10 24.5t24 9.5h268q14 0 24 -9.5t10 -24.5q0 -14 -10 -23t-24 -9h-268zM572 217q14 0 24 -10t10 -24q0 -13 -10 -23.5t-24 -10.5h-201q-14 0 -24 10.5t-10 23.5q0 14 10 24t24 10h201zM1277 1091q33 -33 50.5 -75.5t17.5 -88.5v-1046
q0 -27 -10.5 -51.5t-28.5 -43t-42.5 -29t-52.5 -10.5h-1076q-27 0 -51.5 10.5t-43 29t-29 43t-10.5 51.5v1344q0 27 10.5 51.5t29 43t43 29t51.5 10.5h777q47 0 89 -17t75 -51zM1028 1245q-17 16 -37 27v-266h266q-10 18 -27 37zM1278 927q0 8 -1 11h-319q-14 0 -24 10
t-10 24v316v4q-3 0 -6 0.5t-6 0.5h-777q-28 0 -47.5 -19.5t-19.5 -48.5v-1344q0 -29 19.5 -48.5t47.5 -19.5h1076q28 0 47.5 19.5t19.5 48.5v1046zM371 1091q-14 0 -24 9.5t-10 24.5q0 14 10 23t24 9h268q14 0 24 -9t10 -23q0 -15 -10 -24.5t-24 -9.5h-268zM572 83
q14 0 24 -10t10 -24t-10 -24t-24 -10h-201q-14 0 -24 10t-10 24t10 24t24 10h201zM997 74q7 0 12 -5t5 -13v-28q0 -8 -5 -13t-12 -5h-264q-8 0 -13 5t-5 13v18q0 10 9 16q22 12 35 28.5t20 33.5t9 32.5t2 27.5q0 19 -3 33h-57q-7 0 -12 5.5t-5 12.5v25q0 7 5 12t12 5l41 1
q-6 23 -11.5 45.5t-5.5 45.5q0 64 38 102t101 38q71 0 116 -59q5 -5 4 -11.5t-6 -10.5l-20 -21q-3 -2 -6 -3.5t-7 -0.5q-9 0 -12 7q-17 18 -33 27t-36 9t-33.5 -6.5t-22 -17.5t-12.5 -25t-4 -28q0 -20 5 -39.5t11 -39.5l3 -12h104q8 0 13 -5t5 -12v-26q0 -7 -5 -12.5
t-13 -5.5h-91q3 -15 3 -33q0 -33 -8 -60t-25 -50h174zM572 351q14 0 24 -9.5t10 -24.5q0 -14 -10 -23t-24 -9h-201q-14 0 -24 9t-10 23q0 15 10 24.5t24 9.5h201zM371 687q-14 0 -24 10t-10 24t10 24t24 10h604q14 0 24 -10t10 -24t-10 -24t-24 -10h-604zM371 553
q-14 0 -24 10t-10 24t10 24t24 10h604q14 0 24 -10t10 -24t-10 -24t-24 -10h-604zM572 485q14 0 24 -9t10 -23q0 -15 -10 -24.5t-24 -9.5h-201q-14 0 -24 9.5t-10 24.5q0 14 10 23t24 9h201z" />
    <glyph glyph-name="book" unicode="&#xf02d;" horiz-adv-x="1636" 
d="M639 1156q14 0 24 -10t10 -24t-10 -23.5t-24 -9.5h-268q-14 0 -24 9.5t-10 23.5t10 24t24 10h268zM639 1022q14 0 24 -10t10 -24t-10 -24t-24 -10h-268q-14 0 -24 10t-10 24t10 24t24 10h268zM1314 -119l28 -28q-9 -47 -45.5 -77.5t-85.5 -30.5h-1075q-28 0 -52.5 10.5
t-43 28.5t-29 42.5t-10.5 52.5v1344q0 28 10.5 52.5t29 43t43 29t52.5 10.5h776q47 0 89 -18t75 -50l201 -202q33 -33 50.5 -74.5t17.5 -88.5v-174q-30 38 -67 70v2h-2q-24 20 -50.5 36.5t-54.5 30.5h107v35q0 3 -0.5 6t-0.5 6h-299q-5 0 -9 0.5t-9 0.5h-5q-13 1 -22 10
t-9 22v316q0 1 0.5 1.5t0.5 1.5q-3 0 -6 0.5t-7 0.5h-776q-28 0 -48 -19.5t-20 -47.5v-333h1h681q-29 -14 -55.5 -30.5t-49.5 -36.5h-576h-1v-70h1h507q-12 -16 -23.5 -33t-21.5 -34h-462h-1v-68h1h431q-6 -17 -11 -33.5t-9 -33.5h-411h-1v-67h1h401q-1 -10 -1.5 -19
t-0.5 -19q0 -8 0.5 -14.5t1.5 -14.5h-401h-1v-67h1h409q8 -37 19 -68h-428h-1v-67h1h457q10 -18 21 -34.5t23 -32.5h-501h-1v-67h1h563q22 -20 45 -36.5t49 -30.5h-657h-1v-68h1h1180zM1028 1242q-8 8 -17.5 15t-19.5 12v-265h266q-6 10 -12.5 19.5t-14.5 17.5zM1211 -188
q28 0 47.5 19.5t19.5 47.5h-1209h-1q0 -28 20 -47.5t48 -19.5h1075zM1622 -137q11 -12 11 -28t-11 -28l-42 -41q-12 -12 -27 -12q-16 0 -28 12l-326 326l-2 2q-14 -10 -28.5 -18t-31.5 -15q-40 -19 -84.5 -29t-92.5 -10q-88 0 -165.5 33.5t-135 91t-91 134.5t-33.5 165
t33.5 165t91 135t135 91.5t165.5 33.5t165 -33.5t135 -91.5t91.5 -135t33.5 -165q0 -55 -13.5 -106t-37.5 -96q-8 -15 -17.5 -28.5t-19.5 -27.5zM1121 129q53 27 92 64q17 17 30 36t25 39q2 3 4 6.5t4 7.5q3 7 7 12.5t6 12.5q14 32 21.5 67t7.5 72q0 74 -28 139t-76.5 113.5
t-114 76.5t-139.5 28t-139 -28t-113.5 -76.5t-76.5 -113.5t-28 -139q0 -72 28 -139q2 -7 6 -12.5t7 -12.5q19 -34 45 -67q5 -5 9 -11t9 -11q25 -25 56 -45q43 -28 92.5 -43.5t104.5 -15.5q44 0 84.5 10.5t76.5 29.5zM1088 274q16 0 16 -16v-27q0 -16 -16 -16h-245
q-16 0 -16 16v18q0 9 8 15q20 11 32.5 26t19 31t8.5 30.5t2 25.5q0 17 -3 31h-53q-7 0 -11.5 5t-4.5 12v21q0 15 15 17l39 1q-6 21 -11 41.5t-5 42.5q0 60 34.5 94.5t93.5 34.5q67 0 108 -53q9 -12 -1 -22l-20 -18q-4 -4 -12 -4q-7 0 -11 6q-29 33 -64 33q-36 0 -51 -22.5
t-15 -48.5q0 -19 4.5 -36.5t9.5 -36.5q1 -3 2 -5.5t2 -4.5h96q16 0 16 -16v-24q0 -7 -4.5 -12t-11.5 -5h-84q1 -8 1.5 -15.5t0.5 -15.5q0 -32 -7 -56.5t-23 -46.5h161z" />
    <glyph glyph-name="bookmark" unicode="&#xf02e;" horiz-adv-x="1612" 
d="M1609 488q6 -30 1.5 -58.5t-18.5 -53t-36 -43t-50 -28.5v70q24 16 35.5 43t5.5 57l-101 474l23 5l-40 186l-24 -5q-9 30 -34 49.5t-57 19.5q-5 0 -10 -0.5t-10 -1.5l-1067 -227q-18 -4 -33 -14t-25 -24.5t-14.5 -32t-2.5 -35.5l-32 -7l8 -37l-16 -2t-16 -3l-5 28
q-7 32 -1 63.5t22.5 57t42.5 44t59 25.5l1067 227q31 6 62 -0.5t57 -23.5t44.5 -42.5t25.5 -57.5zM159 828q-8 0 -15.5 -1t-15.5 -2l-8 37l32 7l1253 266l24 5l40 -186l-23 -5l-566 -121h-721zM1410 -96q0 -33 -12.5 -62t-34.5 -50.5t-51 -34t-62 -12.5h-1091
q-33 0 -62 12.5t-51 34t-34.5 50.5t-12.5 62v668q0 33 12.5 62.5t34.5 51t51 34t62 12.5h1091q33 0 62 -12.5t51 -34t34.5 -51t12.5 -62.5v-668zM31 389h32v-485q0 -20 7.5 -37t20.5 -30t30.5 -20.5t37.5 -7.5h1091q20 0 37.5 7.5t30.5 20.5t20.5 30t7.5 37v485h23v191h-24
q-3 37 -30 62.5t-65 25.5h-1091q-38 0 -65 -25.5t-30 -62.5h-33v-8v-183zM1346 389h23v191h-24h-1281h-33v-8v-183h32h1283zM850 223q14 0 23 -9.5t9 -23.5q0 -13 -9 -22t-23 -9h-666q-14 0 -23 9t-9 22q0 14 9 23.5t23 9.5h666zM850 108q14 0 23 -9t9 -22q0 -14 -9 -23.5
t-23 -9.5h-666q-14 0 -23 9.5t-9 23.5q0 13 9 22t23 9h666zM850 -5q14 0 23 -9.5t9 -23.5q0 -13 -9 -22.5t-23 -9.5h-666q-14 0 -23 9.5t-9 22.5q0 14 9 23.5t23 9.5h666zM940 161q0 26 19 44.5t45 18.5h157q27 0 45.5 -18.5t18.5 -44.5v-158q0 -26 -18.5 -45t-45.5 -19
h-157q-26 0 -45 19t-19 45v158z" />
    <glyph glyph-name="print" unicode="&#xf02f;" horiz-adv-x="1522" 
d="M1042 797q-3 0 -3 -2q-19 -24 -49 -24q-26 0 -44.5 18.5t-18.5 44.5q0 14 6 26t15 20q1 2 5 6l254 192q14 10 26 0q7 -5 8 -13.5t-4 -15.5zM1300 866q-6 0 -8 -1v1h8zM1521 807v-6h-1q-3 -102 -44 -191.5t-109.5 -156t-159 -105t-193.5 -38.5h-16v164h16q69 0 129.5 25.5
t106.5 69.5t74 103t32 127h84q15 0 25 10t10 24q0 13 -8.5 22t-20.5 11h8q-6 85 -41 159.5t-91.5 131.5t-131 92t-159.5 41q-3 11 -12 18.5t-21 7.5t-21 -7.5t-11 -18.5h-1q-62 -5 -118.5 -25t-105 -53t-87 -77t-65.5 -97h-34q-11 -1 -21 -1.5t-20 -2.5q30 71 78.5 130.5
t111.5 102t137.5 66.5t156.5 24q104 0 196 -38t162 -104.5t113.5 -156t49.5 -192.5h2v-48v-11zM1292 802q2 0 2.5 -0.5t2.5 -0.5h-5v1zM514 1034q10 2 20 2.5t21 1.5h34h27q46 -3 81.5 -13.5t63 -25.5t47 -33t32.5 -35q39 -51 51.5 -106.5t5.5 -93.5q-3 -19 -5.5 -38.5
t-4 -36t-1.5 -28.5v-16q8 -20 10 -43.5t-6 -67.5q-15 -75 -47 -118q-5 -32 -15 -60.5t-18 -46.5q-7 -15 -13 -31.5t-6 -32.5v-9q36 -11 78.5 -24.5t83.5 -28t77 -27.5t59 -23q46 -20 67 -54.5t21 -66.5v-146q0 -17 -6 -32.5t-17 -28.5t-28 -20.5t-39 -7.5h-996
q-22 0 -39 7.5t-28 20.5t-17 28.5t-6 32.5v146q0 84 77 117q21 9 56 22.5t76 28.5t84 29.5t80 26.5v8q0 44 -9 65q-8 18 -18 46.5t-15 60.5q-32 43 -47 118q-9 43 -7 67t10 44q1 4 0.5 16t-1.5 28.5t-3.5 36t-5.5 38.5q-7 38 5.5 93.5t51.5 106.5q12 15 28 30.5t38 29.5
t50 25.5t63 17.5zM787 890q-10 12 -25 25.5t-36 25t-48.5 20t-63.5 10.5h-57q-68 -5 -108.5 -30.5t-60.5 -50.5q-16 -20 -25.5 -41.5t-14 -41.5t-5.5 -37t1 -27q3 -17 6 -38.5t4.5 -42t1.5 -37.5t-1 -25q-1 -2 -2.5 -6.5t-2.5 -6.5q-2 -4 -3 -8.5t-1.5 -13t0.5 -20.5t5 -31
q9 -44 20 -65.5t18 -30.5q3 -3 5.5 -7.5t2.5 -9.5q4 -26 12 -52.5t16 -43.5q16 -35 16 -94q0 -25 -4 -43t-28 -26q-36 -11 -80 -25.5t-87 -29.5t-79.5 -29t-57.5 -23q-37 -16 -37 -56v-146q0 -8 4.5 -15t18.5 -7h996q14 0 18.5 7t4.5 15v146q0 14 -11.5 31t-35.5 28
q-23 10 -61 23.5t-80.5 28.5t-86 29t-78.5 24q-25 8 -29 26.5t-4 42.5q0 26 8 49.5t17 43.5q8 17 16.5 43.5t11.5 52.5q1 10 8 17q7 9 18.5 30.5t20.5 65.5q7 37 5 51.5t-5 22.5q0 1 -1.5 4.5t-1.5 4.5q-2 9 -2 26.5t1.5 38.5t4 42.5t5.5 38.5q2 10 1.5 27t-5.5 37
t-14.5 41.5t-24.5 41.5zM998 1316q12 0 21 -7.5t12 -18.5q0 -2 0.5 -4t0.5 -4v-135q0 -14 -10 -24.5t-24 -10.5t-24 10.5t-10 24.5v135q0 2 2 8q2 11 11 18.5t21 7.5zM1475 833q0 -14 -10 -24t-25 -10h-84h-50q-3 0 -5 0.5t-4 1.5q-2 0 -2.5 0.5t-2.5 0.5q-20 10 -20 31
q0 22 20 32q2 1 8 1q4 2 6 2h134q2 0 6 -2q12 -2 20.5 -11t8.5 -22z" />
    <glyph glyph-name="camera" unicode="&#xf030;" horiz-adv-x="1626" 
d="M978 542q2 0 3 0.5t3 0.5q-2 0 -4 -0.5t-4 -0.5h2zM995 549q-4 -4 -8 -5q4 1 8 5zM791 132q-10 -39 -36 -74q26 35 36 74zM1590 621q1 0 1.5 -0.5t1.5 -0.5q12 0 21 9l-233 -233q-11 -9 -21 -9t-21 9q-9 9 -9 22q0 12 9 21l182 181h67q1 0 1 0.5t1 0.5zM1617 658
q-3 10 -11.5 16t-18.5 6h-66l-182 182q-9 9 -9 21q0 16 14 25q9 6 19.5 4.5t18.5 -9.5l232 -232q8 -8 8 -21t-8 -21q-9 -9 -21 -9q-1 0 -1.5 0.5t-1.5 0.5q14 1 22.5 12t4.5 25zM588 680q-18 -27 -30 -60h-520q-11 0 -19.5 6t-10.5 17q-4 15 5.5 26t23.5 11h551zM1150 620
q-5 33 -24 60h395h66q10 0 18.5 -6t11.5 -16q4 -14 -4.5 -25t-22.5 -12q-1 0 -1 -0.5t-1 -0.5h-67h-371zM39 40q-6 0 -12.5 -2t-11.5 -7l232 232q8 8 18.5 9.5t19.5 -4.5q8 -4 11 -10.5t3 -14.5q0 -11 -8 -21l-182 -182h-68h-2zM12 3q3 -11 11.5 -17t19.5 -6h66l182 -181
q8 -10 8 -21t-8 -21q-9 -9 -22 -9q-12 0 -21 9l-233 232q-8 10 -8 21q0 13 8 21q5 5 11.5 7t12.5 2q-14 -2 -22 -12.5t-5 -24.5zM477 -9q0 -3 0.5 -5.5t0.5 -5.5h-369h-66q-11 0 -19.5 6t-11.5 17q-3 14 5 24.5t22 12.5h2h68h371q-1 -5 -2 -10.5t-1 -10.5v-28zM1591 40
q11 0 19.5 -6t11.5 -17q3 -14 -6 -25.5t-23 -11.5h-439q0 3 0.5 5.5t0.5 5.5v41q0 2 -0.5 4t-0.5 4h437zM1036 -9q0 -11 -7.5 -18.5t-18.5 -7.5h-388q-11 0 -18 7.5t-7 18.5v28q0 14 13 22q32 18 51 42t29.5 49t14 48.5t3.5 40.5q0 13 -1.5 25.5t-3.5 24.5h-84q-11 0 -18 7
t-7 18v35q0 10 7 17.5t17 8.5l61 2q-11 40 -20 81t-2 86q5 37 23 68.5t45 54t61 35t72 12.5q103 0 170 -84q6 -8 5.5 -18t-8.5 -17l-30 -28q-4 -4 -8 -5q-1 -1 -2 -1h-1q-2 0 -4 -0.5t-4 -0.5q-11 1 -18 9q-23 28 -47 40t-53 12t-49 -9.5t-32.5 -25.5t-18 -35.5t-5.5 -39.5
q0 -30 7 -59t15 -58q2 -5 2.5 -8.5t2.5 -7.5h153q11 0 18 -7.5t7 -18.5v-38q0 -11 -7 -18t-18 -7h-134q4 -23 4 -50q0 -49 -12 -89q-10 -39 -36 -74h255q11 0 18.5 -7.5t7.5 -18.5v-41z" />
    <glyph glyph-name="font" unicode="&#xf031;" horiz-adv-x="1356" 
d="M1298 1130q57 -59 57 -144v-860q0 -26 -9.5 -48.5t-26.5 -39.5t-39.5 -27t-48.5 -10h-4v70h4q23 0 38.5 16t15.5 39v860v2h1q15 0 25 11t10 25q0 15 -10 25t-25 10h-22q-8 13 -18 23l-159 165q-9 9 -21 18v18q0 14 -10 25t-25 11q-14 0 -23.5 -9t-11.5 -23h-1h-615
q-23 0 -38.5 -16t-15.5 -39v-3h-70v3q0 26 10 49t26.5 40t39 27t48.5 10h615q40 0 77 -16t66 -45zM996 1283v4q2 14 11.5 23t23.5 9q15 0 25 -11t10 -25v-18v-155l-57 58q-3 4 -6.5 7t-6.5 6v102zM1115 1059h149h22q15 0 25 -10t10 -25q0 -14 -10 -25t-25 -11h-1h-104
l-12 15zM1227 71v-70v-2q0 -26 -9.5 -49t-26.5 -40t-39.5 -27t-48.5 -10h-3v70h3q23 0 38 16.5t15 39.5v859v3h2q14 0 25 10t11 25q0 14 -11 25t-25 11h-22q-4 5 -8 10.5t-9 10.5l-160 167q-10 10 -21 17v18q0 15 -10 25t-25 10q-14 0 -23.5 -8.5t-11.5 -22.5h-1h-615
q-23 0 -38 -16t-15 -39v-2h-71v2q0 26 9.5 48.5t26.5 39.5t39.5 27t48.5 10h4h70h541q73 0 129 -48q3 -3 6.5 -6t6.5 -7l57 -58l49 -51l54 -56l12 -15q22 -27 34 -60.5t12 -69.5v-787zM868 1155v4q2 14 11.5 22.5t23.5 8.5q15 0 25 -10t10 -25v-18v-155l-56 58
q-4 4 -7.5 6.5t-6.5 5.5v103zM987 932h149h22q14 0 25 -11t11 -25q0 -15 -11 -25t-25 -10h-2h-104q-2 3 -4.5 6.5t-5.5 7.5zM1100 -57v-70v-2q0 -26 -10 -49t-27 -40t-39.5 -27t-48.5 -10h-851q-26 0 -48.5 10t-39.5 27t-26.5 40t-9.5 49v1105q0 26 9.5 49t26.5 40t39.5 27
t48.5 10h4h71h540q35 0 68.5 -13.5t60.5 -36.5q3 -3 6.5 -5.5t7.5 -6.5l56 -58l49 -50l55 -57q3 -4 5.5 -7.5t4.5 -6.5q48 -57 48 -131v-787zM1029 730q0 1 -0.5 1.5t-0.5 1.5h2q15 0 25 10t10 25t-10 25t-25 10h-22q-7 12 -17 23l-160 166q-5 5 -10 9l-10 8v18q0 15 -11 25
t-25 10t-23.5 -9t-10.5 -22h-2h-615q-23 0 -38.5 -16t-15.5 -39v-1105q0 -23 15.5 -39t38.5 -16h851q23 0 38.5 16t15.5 39v859zM310 526q-15 0 -25 10.5t-10 24.5q0 15 10 25.5t25 10.5h479q15 0 25 -10.5t10 -25.5q0 -14 -10 -24.5t-25 -10.5h-479zM310 858q-15 0 -25 10
t-10 25q0 14 10 24.5t25 10.5h213q15 0 25 -10.5t10 -24.5q0 -15 -10 -25t-25 -10h-213zM310 747q-15 0 -25 10.5t-10 24.5q0 15 10 25.5t25 10.5h213q15 0 25 -10.5t10 -25.5q0 -14 -10 -24.5t-25 -10.5h-213zM310 415q-15 0 -25 10.5t-10 25.5t10 25t25 10h479
q15 0 25 -10t10 -25t-10 -25.5t-25 -10.5h-479zM310 305q-15 0 -25 10.5t-10 24.5q0 15 10 25.5t25 10.5h479q15 0 25 -10.5t10 -25.5q0 -14 -10 -24.5t-25 -10.5h-479zM310 195q-15 0 -25 10t-10 25q0 14 10 24.5t25 10.5h479q15 0 25 -10.5t10 -24.5q0 -15 -10 -25
t-25 -10h-479zM310 84q-15 0 -25 10.5t-10 24.5q0 15 10 25.5t25 10.5h479q15 0 25 -10.5t10 -25.5q0 -14 -10 -24.5t-25 -10.5h-479zM789 44q15 0 25 -10.5t10 -24.5q0 -15 -10 -25t-25 -10h-479q-15 0 -25 10t-10 25q0 14 10 24.5t25 10.5h479zM740 768q0 -15 10 -25
t25 -10h253h2q15 0 25 10t10 25t-10 25t-25 10h-22h-197v206v18q0 15 -11 25t-25 10t-23.5 -9t-10.5 -22q-1 -1 -1 -4v-259z" />
    <glyph glyph-name="bold" unicode="&#xf032;" horiz-adv-x="1622" 
d="M1284 -257h-947q-26 0 -49 10t-40 27t-27 40.5t-10 49.5v870h-136q-22 0 -40 11.5t-27 31.5q-10 20 -7.5 40.5t16.5 37.5l341 310q8 11 23 17.5t32 6.5h405v113q0 20 14 34t34 14h220q20 0 35 -15t15 -36v-110h83q17 0 32 -7.5t26 -21.5l326 -302q33 -41 12 -82
q-10 -20 -27.5 -31t-39.5 -11h-137v-870q0 -26 -10 -49.5t-27.5 -40.5t-40.5 -27t-49 -10zM413 1130q-4 0 -8 -4l-340 -309v-2q0 -2 2 -4q2 -6 8 -6h201v-935q0 -26 17.5 -44t43.5 -18h947q26 0 43.5 18t17.5 44v896q0 17 11.5 28t27.5 11h164q6 0 8 6q3 5 -1 9l-326 302
q-7 8 -10 8h-99q-20 0 -35 14.5t-15 35.5v110h-187v-112q0 -20 -14 -34t-34 -14h-422zM696 -94q-6 0 -12 3q-11 4 -16.5 13.5t-3.5 20.5l53 435h-220q-20 0 -30 19q-8 18 4 34l430 563q7 8 17.5 11.5t20.5 -1.5q23 -10 20 -35l-54 -435h221q9 0 17 -5t12 -13q5 -8 3.5 -17.5
t-6.5 -16.5l-430 -563q-10 -13 -26 -13zM563 444h191q14 0 25 -11q9 -11 8 -26l-44 -352l317 414h-191q-16 0 -25 11t-8 26l43 352z" />
    <glyph glyph-name="italic" unicode="&#xf033;" horiz-adv-x="1615" 
d="M810 1362q111 0 214.5 -29t193 -81.5t163 -126t126 -163.5t81.5 -193t29 -214t-29 -214t-81.5 -192.5t-126 -163t-163 -126t-193 -81.5t-214.5 -29t-214 29t-192.5 81.5t-163 126t-126 163t-81.5 192.5t-29 214t29 214t81.5 193t126 163.5t163 126t192.5 81.5t214 29z
M1375 716l-242 323h-175v161h-161v-161h-309l-242 -323h148v-725h806v725h175z" />
    <glyph glyph-name="text_height" unicode="&#xf034;" horiz-adv-x="1612" 
d="M816 1357q111 -2 214 -32t191.5 -83.5t161.5 -128t124.5 -165t78.5 -194t26 -214.5t-31 -214t-83.5 -191.5t-128 -161.5t-165 -124.5t-194 -79t-214.5 -25.5q-111 1 -214 31t-191.5 83.5t-161.5 128t-124.5 165t-79 193.5t-25.5 215q1 111 31 214t83.5 191.5t128 161.5
t165 124.5t193.5 79t215 26.5zM933 469q50 18 92 50.5t72.5 75t48 93.5t18.5 108q1 79 -30 147.5t-85 118t-126 75t-153 16.5q-59 -6 -111 -31.5t-93.5 -64.5t-69.5 -90t-37 -109q-11 -65 1.5 -125t42 -110.5t74.5 -89.5t100 -61l-133 -555l508 -7z" />
    <glyph glyph-name="text_width" unicode="&#xf035;" horiz-adv-x="1619" 
d="M812 1357q111 0 214 -29t192.5 -81.5t163 -126t126 -163.5t81.5 -193t29 -214t-29 -214t-81.5 -192.5t-126 -163t-163 -126t-192.5 -81.5t-214 -29t-214 29t-193 81.5t-163.5 126t-126 163t-81.5 192.5t-29 214t29 214t81.5 193t126 163.5t163.5 126t193 81.5t214 29z
M917 502q50 17 92.5 48t73 72t48 91t17.5 106q0 69 -26.5 130.5t-72 107t-107 72t-130.5 26.5q-70 0 -131 -26.5t-106.5 -72t-72 -107t-26.5 -130.5q0 -59 19 -111t52 -94.5t78.5 -73t99.5 -45.5v-701l224 44q9 0 15 6t6 14v122q0 8 -6 14t-15 6h-3h-68q-8 0 -14 6.5
t-6 14.5v122q0 9 6 15t14 6h53h18q9 0 15 6t6 14v122q0 9 -6 15t-15 6h-33h-38q-8 0 -14 6t-6 14v122q0 8 6 14.5t14 6.5z" />
    <glyph glyph-name="align_left" unicode="&#xf036;" horiz-adv-x="1629" 
d="M817 1364q112 0 216 -29t194.5 -82t164.5 -127.5t127 -165t82 -194.5t29 -216q0 -149 -50.5 -282t-139 -239t-209 -178.5t-261.5 -99.5q0 77 -0.5 122.5t-0.5 74.5v51t1 52q77 24 142 71t112 110.5t73.5 140.5t26.5 161q0 103 -38 195t-110 164q-69 68 -155 106v-363
l-204 -153l-201 153v364q-68 -29 -124 -76t-96.5 -107.5t-63 -132.5t-22.5 -150q0 -102 38 -194t110 -164q45 -45 97.5 -76.5t111.5 -49.5q1 -20 1 -35.5v-31.5v-35t-0.5 -45.5t-0.5 -63.5v-88q-94 17 -180 55.5t-160 94t-134 127t-102 154t-65 175.5t-23 193q0 112 29 216
t82 194.5t127.5 165t164.5 127.5t194 82t217 29z" />
    <glyph glyph-name="align_center" unicode="&#xf037;" horiz-adv-x="1612" 
d="M806 1359q111 0 214 -29t192.5 -81.5t163 -126t126 -163t81.5 -193t29 -214.5t-29 -214t-81.5 -192.5t-126 -163t-163 -126t-192.5 -81.5t-214 -29t-214.5 29t-193 81.5t-163 126t-126 163t-81.5 192.5t-29 214t29 214.5t81.5 193t126 163t163 126t192.5 81.5t215 29z
M1170 1099q0 17 -12 29t-29 12h-647q-17 0 -29 -12t-12 -29v-825q0 -17 12 -29t29 -12h236v-420h175v420h236q17 0 29 12t12 29v825z" />
    <glyph glyph-name="align_right" unicode="&#xf038;" horiz-adv-x="1615" 
d="M805 1360q111 0 214.5 -29t193 -81.5t163 -126t126 -163t81.5 -193t29 -214.5t-29 -214t-81.5 -192.5t-126 -163t-163 -126t-193 -81.5t-214.5 -29t-214 29t-192.5 81.5t-163 126t-126 163t-81.5 192.5t-29 214t29 214.5t81.5 193t126 163t163 126t192.5 81.5t214 29z
M1237 1109h-163v-556l-241 174l-241 -174v556h-165v-1129h810v1129z" />
    <glyph glyph-name="align_justify" unicode="&#xf039;" horiz-adv-x="1702" 
d="M1536 1173q34 0 64.5 -13t53.5 -36t36 -53.5t13 -64.5v-702q0 -35 -13 -65t-36 -53t-53.5 -36t-64.5 -13h-549q30 -11 56 -20.5t44 -17.5q46 -20 67 -54.5t21 -66.5v-145q0 -17 -6 -33t-17 -29t-28 -20.5t-39 -7.5h-995q-22 0 -39 7.5t-28 20.5t-17 29t-6 33v145
q0 85 77 117q21 9 56 22.5t76 28.5t84 29.5t80 25.5v9q0 8 -0.5 15t-1.5 14q-5 11 -7 22l-4 22q-8 19 -16 44.5t-13 54.5q-32 41 -47 117q-9 43 -7 67.5t10 44.5q1 4 0.5 16t-1.5 28.5t-3.5 36t-5.5 38.5q-3 18 -2 42.5t7.5 51t19 53.5t32.5 52q5 7 11 13l13 13v51
q0 34 13 64.5t36 53.5t53.5 36t65.5 13h1010zM1107 -22q0 14 -11 31.5t-35 27.5q-23 10 -61 23.5t-81 28.5t-86.5 29t-77.5 25q-25 8 -29 26.5t-4 41.5q0 26 8 49.5t17 43.5q8 17 16.5 43.5t12.5 52.5q0 9 8 17q7 8 18 30t20 66q7 37 5.5 51t-5.5 23q0 1 -1.5 4.5t-1.5 4.5
q-2 9 -2 26t1.5 38t4 42.5t5.5 39.5q2 10 1.5 27t-5 36.5t-14 41t-25.5 41.5q-10 12 -25 25.5t-36 25t-48.5 20t-63.5 10.5h-56q-69 -5 -109.5 -30.5t-59.5 -50.5q-16 -20 -25.5 -41.5t-14 -41t-5.5 -36.5t1 -27q3 -18 5.5 -39.5t4 -42t2 -37.5t-1.5 -25q0 -2 -1.5 -5.5
t-2.5 -5.5q-2 -5 -3 -10t-1.5 -13t0.5 -20.5t4 -30.5q9 -44 20.5 -66t18.5 -30t8 -17q4 -26 12 -52.5t16 -43.5q16 -35 16 -94q0 -25 -4 -42.5t-28 -25.5q-36 -11 -80 -25.5t-86.5 -29.5t-79.5 -29.5t-58 -23.5q-37 -16 -37 -56v-145q0 -8 4.5 -15.5t18.5 -7.5h995
q14 0 18 7.5t4 15.5v145zM1636 1006q0 42 -29 71t-71 29h-1010q-21 0 -39.5 -8t-32 -21.5t-21.5 -31.5t-8 -39v-4q26 14 57 23t71 11h61q34 -2 62 -8.5t51 -15.5h792q14 0 23.5 -10t9.5 -24t-9.5 -23.5t-23.5 -9.5h-695q4 -5 7.5 -8.5t6.5 -7.5q14 -19 24 -39t17 -40h640
q14 0 23.5 -9.5t9.5 -23.5t-9.5 -24t-23.5 -10h-624q3 -31 0 -53q-5 -21 -6 -42h630q14 0 23.5 -9.5t9.5 -23.5t-9.5 -24t-23.5 -10h-635v-10q7 -17 9.5 -36t-1.5 -48h627q14 0 23.5 -9.5t9.5 -23.5t-9.5 -24t-23.5 -10h-641q-15 -49 -37 -78q-2 -10 -4 -17h682
q14 0 23.5 -9.5t9.5 -23.5t-9.5 -24t-23.5 -10h-688q-3 0 -6 1l-6 2q-3 -8 -6 -14.5t-5 -11.5q-7 -15 -13 -32t-6 -32v-7h747q42 0 71 29t29 71v702z" />
    <glyph glyph-name="list" unicode="&#xf03a;" horiz-adv-x="1750" 
d="M1089 -257h-999q-47 0 -72 34q-19 24 -19 56v146q0 84 77 118q21 9 56.5 22.5t77 28.5t84.5 29.5t80 25.5v9q0 45 -10 65q-8 18 -17.5 46.5t-14.5 60.5q-33 42 -48 119q-8 43 -6.5 67t9.5 45h1v1v17.5t-1.5 29t-4 35t-5.5 36.5t-2 42.5t7.5 51t19 54t32.5 52.5
q13 17 32.5 35t46.5 33t62 25.5t80 13.5q1 0 1 0.5t1 0.5h59h2q45 -3 80.5 -14t62.5 -26t46.5 -33t32.5 -35q20 -25 32.5 -52.5t19.5 -54t8 -51t-2 -42.5t-5.5 -36.5t-4 -35t-1.5 -29v-17.5l1 -1q8 -20 9.5 -44.5t-6.5 -67.5q-17 -79 -47 -119q-5 -32 -15 -60.5t-18 -46.5
q-7 -15 -13 -31.5t-6 -32.5v-8q36 -11 78.5 -25t83.5 -28.5t77.5 -27.5t59.5 -23q43 -19 65 -53q23 -32 23 -69v-146q0 -17 -6 -33t-17 -29t-28 -20.5t-39 -7.5zM350 590q-4 -8 -5.5 -22.5t5.5 -51.5q9 -44 20 -66t19 -30q7 -8 8 -17q3 -26 11.5 -53t16.5 -44q16 -35 16 -94
v-23.5t-2 -15.5q-5 -17 -15 -22.5t-15 -7.5h-1q-36 -11 -80 -25.5t-87 -29.5t-80 -29.5t-58 -23.5q-36 -16 -36 -56v-146q0 -3 1 -7.5t4 -8.5q1 -1 4.5 -3.5t13.5 -2.5h999q10 0 13 2.5t5 3.5q5 8 5 16v146q0 14 -11.5 31t-36.5 28q-23 10 -61 24t-81 29t-86.5 29t-77.5 24
l-1 1q-5 1 -15 6.5t-15 22.5q-2 7 -2.5 15t-0.5 24q0 26 8 49.5t18 43.5q8 17 16.5 44t11.5 53q1 9 8 17t18.5 30t20.5 66q4 19 5 31t0.5 20.5t-2.5 13.5t-3 10l-1 1l-2 7l-1 2q-2 8 -1.5 25t2 38t4.5 42.5t6 39.5q1 10 0.5 27t-5.5 37t-14.5 41.5t-24.5 41.5
q-10 12 -25 25.5t-36 25t-48.5 20t-63.5 10.5h-57q-70 -5 -110.5 -30.5t-59.5 -50.5q-16 -20 -25.5 -41.5t-14.5 -41.5t-5.5 -37t1.5 -27q3 -18 5.5 -39.5t4 -42t1.5 -37.5t-1 -25v-2zM1335 775q35 0 66 -13.5t54 -36.5t36.5 -53.5t13.5 -65.5t-13.5 -66t-36.5 -54
t-54 -36.5t-66 -13.5t-65.5 13.5t-53.5 36.5t-36.5 54t-13.5 66t13.5 65.5t36.5 53.5t53.5 36.5t65.5 13.5zM1335 381q46 0 87 17.5t72 48t48.5 71.5t17.5 88q0 46 -18 87t-48.5 71.5t-71.5 48t-87 17.5q-47 0 -87.5 -17t-71 -47t-48 -71t-17.5 -89t17.5 -89t48 -71
t71 -47.5t87.5 -17.5zM1382 965v-52v-24l23 -7q20 -5 39 -12.5t37 -18.5l21 -13l17 17l37 38l67 -67l-39 -38l-17 -17l12 -21q20 -36 29 -74l6 -24h25h56v-94h-59h-24l-6 -22q-11 -38 -30 -71l-13 -21l17 -17l43 -43l-67 -66l-44 44l-16 16l-21 -11q-17 -10 -34 -17t-36 -12
l-23 -6v-24v-62h-94v62v24l-23 6q-18 5 -35.5 12t-34.5 17l-20 11l-17 -16l-44 -44l-66 66l42 43l17 17l-12 21q-10 17 -18 34.5t-13 36.5l-6 22h-24h-58v94h56h24l6 24q5 20 12 38.5t17 35.5l12 21l-17 17l-38 38l66 67l37 -38l18 -17l21 13q17 11 36 18.5t39 12.5l23 7v24
v52h94zM1382 1019h-94q-23 0 -39 -15.5t-16 -38.5v-35q-27 -9 -56 -23l-24 24q-16 16 -39 16t-38 -16l-67 -66q-16 -16 -16 -39q0 -21 16 -39l26 -26q-14 -26 -21 -54h-38q-23 0 -39 -16t-16 -39v-94q0 -23 16 -38.5t39 -15.5h41q10 -29 22 -51l-30 -30q-16 -16 -16 -38.5
t16 -38.5l67 -67q16 -16 38 -16q23 0 39 16l31 32q12 -6 24 -11t25 -9v-45q0 -23 16 -39t39 -16h94q23 0 39 16t16 39v45q13 4 25 9t24 11l31 -32q18 -16 39 -16t39 16l66 67q16 15 16 38q0 24 -16 39l-29 30q6 12 11.5 24.5t10.5 26.5h41q23 0 38.5 15.5t15.5 38.5v94
q0 23 -15.5 39t-38.5 16h-38q-5 14 -10 27.5t-12 26.5l26 26q16 16 16 39q0 24 -16 39l-66 66q-16 16 -39 16t-39 -16l-24 -24q-29 14 -56 23v35q0 23 -16 38.5t-39 15.5z" />
    <glyph glyph-name="indent_left" unicode="&#xf03b;" horiz-adv-x="1612" 
d="M1404 991h-722q-13 0 -21.5 8.5t-8.5 21.5t8.5 22t21.5 9h722q13 0 22 -9t9 -22t-9 -21.5t-22 -8.5zM1404 865h-722q-13 0 -21.5 8.5t-8.5 21.5t8.5 22t21.5 9h722q13 0 22 -9t9 -22t-9 -21.5t-22 -8.5zM1404 739h-722q-13 0 -21.5 8.5t-8.5 21.5q0 14 8.5 22.5t21.5 8.5
h722q13 0 22 -8.5t9 -22.5q0 -13 -9 -21.5t-22 -8.5zM1404 613h-722q-13 0 -21.5 9t-8.5 22t8.5 21.5t21.5 8.5h722q13 0 22 -8.5t9 -21.5t-9 -22t-22 -9zM561 897q7 0 10.5 6.5t-1.5 12.5l-95 88q-3 5 -9 5h-28q-5 0 -5 5v36q0 5 -5 5h-63q-5 0 -5 -5v-37q0 -4 -4 -4h-121
q-5 0 -10 -5l-96 -88q-5 -5 -2 -12t11 -7h48v-259q0 -11 8 -19t19 -8h271q12 0 20 8t8 19v257q0 2 2 2h47zM1520 487h-1429q-19 0 -36 7t-29.5 19.5t-19.5 29.5t-7 36v507q0 19 7 36t19.5 29.5t29.5 19.5t36 7h1429q19 0 35.5 -7t29 -19.5t20 -29.5t7.5 -36v-507
q0 -19 -7.5 -36t-20 -29.5t-29 -19.5t-35.5 -7zM91 1117q-13 0 -22 -9t-9 -22v-507q0 -13 9 -22t22 -9h1429q13 0 21.5 9t8.5 22v507q0 13 -8.5 22t-21.5 9h-1429zM1404 247h-722q-13 0 -21.5 9t-8.5 22t8.5 21.5t21.5 8.5h722q13 0 22 -8.5t9 -21.5t-9 -22t-22 -9z
M1404 121h-722q-13 0 -21.5 9t-8.5 22t8.5 21.5t21.5 8.5h722q13 0 22 -8.5t9 -21.5t-9 -22t-22 -9zM1404 -5h-722q-13 0 -21.5 9t-8.5 22t8.5 21.5t21.5 8.5h722q13 0 22 -8.5t9 -21.5t-9 -22t-22 -9zM1404 -131h-722q-13 0 -21.5 9t-8.5 22t8.5 21.5t21.5 8.5h722
q13 0 22 -8.5t9 -21.5t-9 -22t-22 -9zM561 153q7 0 10.5 7t-1.5 13l-95 87q-3 5 -9 5h-28q-5 0 -5 5v36q0 5 -5 5h-63q-5 0 -5 -4v-37q0 -5 -4 -5h-121q-4 0 -10 -4l-96 -88q-5 -6 -2 -13t11 -7h48v-259q0 -11 8 -19t19 -8h271q12 0 20 8t8 19v257q0 2 2 2h47zM1520 -257
h-1429q-19 0 -36 7t-29.5 19.5t-19.5 29.5t-7 36v507q0 19 7 36t19.5 29.5t29.5 19.5t36 7h1429q19 0 35.5 -7t29 -19.5t20 -29.5t7.5 -36v-507q0 -19 -7.5 -36t-20 -29.5t-29 -19.5t-35.5 -7zM91 373q-13 0 -22 -9t-9 -22v-507q0 -13 9 -22t22 -9h1429q13 0 21.5 9t8.5 22
v507q0 13 -8.5 22t-21.5 9h-1429z" />
    <glyph glyph-name="indent_right" unicode="&#xf03c;" horiz-adv-x="1271" 
d="M10 -128q-14 26 -11 53v3v1321q0 22 8.5 41.5t23 34.5t34 23.5t42.5 8.5h949q22 0 42 -8.5t35 -23.5t23.5 -34.5t8.5 -41.5v-1181q0 -23 -8.5 -42.5t-23.5 -34.5t-35 -23.5t-42 -8.5h-959q-22 0 -35 -19q-11 -21 -1 -40l41 -75q11 -22 36 -22h1104q12 0 20.5 -8.5
t8.5 -20.5t-8.5 -21t-20.5 -9h-1104q-27 0 -50 14t-37 38zM107 1298q-21 0 -36 -14.5t-15 -34.5v-1240q19 9 41 9h959q21 0 35.5 14.5t14.5 35.5v1181q0 20 -14.5 34.5t-35.5 14.5h-949zM1214 1216q0 12 8 20.5t20 8.5t20.5 -8.5t8.5 -20.5v-1175q0 -39 -14.5 -72.5t-40 -59
t-59 -40t-72.5 -14.5h-933q-12 0 -21 8.5t-9 20.5t9 20.5t21 8.5h933q26 0 49.5 10t41 27.5t28 41t10.5 49.5v1175zM700 1063h-95q-7 0 -7 -7v-67q0 -8 -8 -8h-217q-11 0 -17 -8l-173 -157q-8 -11 -2.5 -23t19.5 -12h86v-463q0 -20 14 -34t34 -14h486q20 0 34 14t14 34v460
q0 3 3 3h84q14 0 19.5 12t-2.5 23l-169 157q-6 8 -17 8h-50q-9 0 -9 9v65q0 8 -9 8h-18zM718 1119q27 0 46 -19t19 -45v-18h3q34 0 57 -26l167 -154l3 -3l3 -4q14 -17 16.5 -39t-7.5 -42q-11 -20 -29 -32t-41 -12h-31v-407q0 -21 -8 -40t-22.5 -33.5t-33.5 -22.5t-40 -8
h-486q-21 0 -40 8t-33.5 22.5t-22.5 33.5t-8 40v407h-30q-23 0 -41.5 12t-28.5 32t-7 42.5t17 39.5l2 3l4 3l170 155q23 25 57 25h169v19q0 26 18.5 44.5t44.5 18.5h113z" />
    <glyph glyph-name="facetime_video" unicode="&#xf03d;" horiz-adv-x="1609" 
d="M541 680q0 -28 -19.5 -48t-47.5 -20h-134q-28 0 -47.5 20t-19.5 48v70q0 28 19.5 47.5t47.5 19.5h134q28 0 47.5 -19.5t19.5 -47.5v-70zM1341 684q0 -28 -19.5 -47t-47.5 -19h-607q-28 0 -47 19t-19 47t19 47t47 19h607q28 0 47.5 -19t19.5 -47zM1544 942
q28 0 46.5 -19.5t18.5 -47.5v-806q0 -28 -18.5 -48.5t-46.5 -20.5h-67q-28 0 -47 20.5t-19 48.5v135h-1208v-135q0 -28 -20.5 -48.5t-48.5 -20.5h-67q-28 0 -47.5 20.5t-19.5 48.5v1007q0 28 19.5 46.5t47.5 18.5h67q28 0 48.5 -18.5t20.5 -46.5v-535h1208v334q0 28 19 47.5
t47 19.5h67z" />
    <glyph glyph-name="picture" unicode="&#xf03e;" horiz-adv-x="1615" 
d="M1545 773q28 0 47.5 -19t19.5 -47v1q0 -28 -19 -47.5t-47 -19.5v-201q0 -69 -22.5 -131.5t-60.5 -113.5l79 -167q5 -13 0.5 -26t-17.5 -19l-21 -10q-13 -6 -26 -1.5t-19 17.5l-65 136q-52 -42 -116 -65.5t-136 -23.5h-672q-72 0 -136 23.5t-116 65.5l-65 -136
q-6 -13 -19 -17.5t-26 1.5l-22 10q-13 6 -17.5 19t1.5 26l79 167q-39 51 -61 113.5t-22 131.5v201q-27 0 -47 19.5t-20 47.5l1 -1q0 28 19.5 47t47.5 19h101v264q0 55 21 104.5t57.5 86t85.5 58t105 21.5h167q56 0 105 -21t85.5 -58t57.5 -86t21 -104q0 -28 -19.5 -47.5
t-47.5 -19.5t-47.5 19.5t-19.5 47.5t-10.5 53t-29 43.5t-43 29t-52.5 10.5h-167q-28 0 -52.5 -11t-43 -30t-29 -43.5t-10.5 -52.5v-264h1243v0z" />
    <glyph glyph-name="pencil" unicode="&#xf040;" horiz-adv-x="1612" 
d="M705 546q28 0 47.5 -19.5t19.5 -47.5t-19.5 -47.5t-47.5 -19.5h-336q-28 0 -47.5 19.5t-19.5 47.5t19.5 47.5t47.5 19.5h336zM770 678q0 -28 -19.5 -47.5t-47.5 -19.5h-335q-28 0 -47.5 19.5t-19.5 47.5v269q0 28 19.5 47.5t47.5 19.5h335q28 0 47.5 -19.5t19.5 -47.5
v-269zM1242 546q28 0 47.5 -19.5t19.5 -47.5t-19.5 -47.5t-47.5 -19.5h-336q-28 0 -47.5 19.5t-19.5 47.5t19.5 47.5t47.5 19.5h336zM1310 678q0 -28 -19.5 -47.5t-47.5 -19.5h-335q-28 0 -48 19.5t-20 47.5v269q0 28 20 47.5t48 19.5h335q28 0 47.5 -19.5t19.5 -47.5v-269z
M1610 560q0 -53 -35 -88v-398q0 -28 -18 -47.5t-46 -19.5h-68q-28 0 -47.5 19.5t-19.5 47.5v4h-1141v-4q0 -28 -20 -47.5t-48 -19.5h-67q-28 0 -48 19.5t-20 47.5v398q-15 17 -24 39.5t-9 48.5q0 28 10.5 52.5t29 43t43 29t52.5 10.5t52.5 -10.5t42.5 -29t28.5 -43
t10.5 -52.5q0 -52 -33 -88v-127h1141v127q-14 17 -24 39.5t-10 48.5q0 28 10.5 52.5t28.5 43t42.5 29t52.5 10.5t52.5 -10.5t42.5 -29t28.5 -43t10.5 -52.5z" />
    <glyph glyph-name="map_marker" unicode="&#xf041;" horiz-adv-x="1615" 
d="M1501 753q25 0 48 -14t38.5 -35.5t22 -48.5t0.5 -52l-104 -411v-221q0 -20 -15 -35t-36 -15h-138q-21 0 -36 15t-15 35v80h-931v-80q0 -20 -15 -35t-37 -15h-137q-21 0 -36 15t-15 35v212l-91 420q-6 25 2 52t25.5 48.5t41 35.5t49.5 14h18q1 7 2 13.5t4 13.5l135 318
q8 15 17.5 23.5t21.5 13.5t26.5 8.5t31.5 8.5q66 12 139 22q63 8 142 15.5t162 7.5q79 0 153.5 -7.5t133.5 -15.5q69 -10 129 -22q36 -11 62.5 -21t37.5 -33l147 -318q7 -15 8 -27h9zM346 789q-12 -28 -5 -42.5t38 -27.5q61 -17 131 -30q60 -11 135 -20t156 -9q82 0 160.5 9
t141.5 20q73 13 138 30q31 8 44.5 25t-0.5 45l-93 186q-8 17 -25.5 25.5t-46.5 13.5q-45 9 -94 16q-42 6 -96 11.5t-111 5.5q-60 0 -117 -5.5t-102 -11.5q-53 -7 -100 -16q-28 -5 -46 -13.5t-25 -25.5zM294 391q21 0 39 7.5t31.5 20.5t21 30.5t7.5 37.5t-7.5 37.5t-21 30.5
t-31.5 20.5t-39 7.5q-20 0 -38 -7.5t-31.5 -20.5t-21.5 -30.5t-8 -37.5t8 -37.5t21.5 -30.5t31.5 -20.5t38 -7.5zM1128 289q14 33 -0.5 58.5t-51.5 25.5h-512q-38 0 -52.5 -25.5t0.5 -58.5q6 -15 17.5 -27.5t25 -21.5t28.5 -14t30 -5h413q30 0 59.5 19.5t42.5 48.5z
M1334 391q20 0 38 7.5t31.5 20.5t21 30.5t7.5 37.5t-7.5 37.5t-21 30.5t-31.5 20.5t-38 7.5q-21 0 -39 -7.5t-31.5 -20.5t-21 -30.5t-7.5 -37.5t7.5 -37.5t21 -30.5t31.5 -20.5t39 -7.5z" />
    <glyph glyph-name="adjust" unicode="&#xf042;" horiz-adv-x="1192" 
d="M1165 130q24 -24 24 -57t-24 -56v-2q-24 -23 -57 -23t-56 23l-460 460l-450 -450q-23 -23 -56.5 -23t-56.5 23l-1 1q-23 24 -23 57t23 56l450 450l-454 454q-23 23 -23 56.5t23 56.5l1 1q24 23 57 23t56 -23l454 -454l464 464q23 23 56 23t56 -23l2 -1q23 -23 23 -56.5
t-23 -56.5l-464 -464z" />
    <glyph glyph-name="tint" unicode="&#xf043;" horiz-adv-x="1618" 
d="M1536 515h-1454q-33 0 -56 23t-23 56v2q0 33 23 56.5t56 23.5h1454q33 0 56 -23.5t23 -56.5v-2q0 -33 -23 -56t-56 -23z" />
    <glyph glyph-name="edit" unicode="&#xf044;" horiz-adv-x="1618" 
d="M1534 630q33 0 57 -23.5t24 -56.5v-1q0 -34 -24 -57.5t-57 -23.5h-650v-635q0 -34 -23.5 -57t-56.5 -23h-1q-33 0 -57 23t-24 57v635h-641q-33 0 -56 23.5t-23 57.5v1q0 33 23 56.5t56 23.5h641v656q0 33 24 56.5t57 23.5h1q33 0 56.5 -23.5t23.5 -56.5v-656h650z" />
    <glyph glyph-name="share" unicode="&#xf045;" 
d="M1620 928q23 -23 22.5 -56t-23.5 -56l-741 -741l-1 -1q-23 -23 -56 -23.5t-56 22.5l-1 1l-741 741q-23 23 -22.5 56t23.5 56l1 1q24 23 56.5 23.5t55.5 -22.5l685 -685l684 685q23 23 56.5 23.5t56.5 -23.5l1 -1v0z" />
    <glyph glyph-name="F046" unicode="&#xf046;" 
d="M1596 4q-25 0 -38 22q-75 130 -161 206.5t-187 116.5t-218.5 52t-254.5 13v-327q0 -28 -25 -41q-26 -11 -47 7l-645 541q-16 14 -16 34q0 9 3.5 18t11.5 15l644 581q23 20 48 7q12 -5 19 -16t7 -24v-279q140 -6 253 -46.5t202.5 -102.5t157 -139.5t117.5 -157.5
t83 -156.5t53 -136t28.5 -97t8.5 -38.5q3 -17 -5.5 -30.5t-23.5 -19.5q-5 -2 -15 -2zM116 630l533 -448v277q0 18 13 31t31 13q120 0 228.5 -6t206 -29t184.5 -67.5t165 -120.5q-25 59 -61 123.5t-84.5 127t-111.5 119t-141.5 99.5t-174.5 68t-211 25q-18 0 -31 13t-13 31
v223z" />
    <glyph glyph-name="Reply All" unicode="&#xf047;" 
d="M1602 27q-21 0 -32 19q-62 109 -134 173t-156 97t-182 43t-212 11v-274q0 -23 -22 -33q-21 -10 -39 5l-539 452q-11 10 -13 28q0 17 12 28l539 484q18 16 40 7q22 -10 22 -34v-233q116 -5 210.5 -39t169 -85.5t131 -116t98 -131.5t69 -130.5t44 -113.5t24 -81.5
t7.5 -32.5q2 -13 -4.5 -24.5t-19.5 -16.5q-8 -2 -13 -2zM367 549l445 -373v231q0 15 10.5 26t26.5 11q100 0 190.5 -5t172 -24t154 -56.5t137.5 -101.5q-21 49 -51 103.5t-70.5 106.5t-93 99t-118 83t-145.5 57t-176 21q-16 0 -26.5 10.5t-10.5 26.5v186zM621 5q-13 0 -23 9
l-582 489q-13 11 -13 27q0 17 12 29l582 523q11 11 26 9.5t26 -12.5t9.5 -26t-12.5 -26l-550 -495l549 -461q12 -10 13.5 -25.5t-8.5 -26.5q-12 -14 -29 -14z" />
    <glyph glyph-name="Forward" unicode="&#xf048;" 
d="M1000 9q-10 0 -17 4q-24 11 -24 37v288h-917q-17 0 -29 12t-12 29v411q0 17 12 29t29 12h917v258q0 12 6.5 22t17.5 15q24 11 44 -7l597 -537q14 -12 14 -31q-2 -19 -15 -31l-597 -501q-10 -10 -26 -10zM83 420h917q17 0 29 -12t12 -29v-241l493 415l-493 444v-207
q0 -17 -12 -29t-29 -12h-917v-329z" />
    <glyph glyph-name="Cancel" unicode="&#xf049;" horiz-adv-x="1682" 
d="M841 -254q-172 0 -326 66q-76 32 -142.5 77t-124.5 103q-117 117 -180 267q-66 154 -66 327q0 171 66 327q32 75 77 141.5t103 124.5q115 117 267 180q154 66 326 66t327 -66q75 -32 142 -76.5t125 -103.5q58 -58 103 -124.5t77 -141.5q66 -156 66 -327q0 -173 -66 -327
q-63 -150 -180 -267t-267 -180q-155 -66 -327 -66zM841 1334q-150 0 -291 -59q-133 -57 -238 -160q-103 -105 -160 -238q-59 -139 -59 -291t59 -291q57 -135 160 -238q104 -105 238 -160q141 -59 291 -59q151 0 292 59q134 56 237 160q104 102 161 238q58 137 58 291
t-58 291q-57 134 -161 238q-103 103 -237 160q-141 59 -292 59zM906 586l325 324q13 14 13 32.5t-13 32.5q-14 14 -32.5 14t-32.5 -14l-325 -324l-324 324q-14 14 -32.5 14t-32.5 -14t-14 -32.5t14 -32.5l325 -324l-325 -325q-14 -13 -14 -32t14 -33q15 -13 33 -13
q17 0 32 13l324 325l325 -325q15 -13 32 -13q18 0 33 13q13 14 13 33t-13 32z" />
    <glyph glyph-name="Attachment" unicode="&#xf050;" horiz-adv-x="1633" 
d="M1504 1069q63 -63 97 -144t34 -171t-34 -171t-97 -145l-561 -561q-19 -19 -46 -19q-26 0 -45 19t-19 45t19 45l562 561q45 46 69 104t24 122t-24 122t-69 103q-47 46 -105.5 69.5t-120 23.5t-120.5 -23.5t-105 -69.5l-633 -634h-1l-144 -144q-27 -27 -41.5 -62t-14.5 -73
t14.5 -73t41.5 -62q56 -56 135 -56q39 0 74 14.5t62 41.5l236 237l541 540q19 19 19 45.5t-19 44.5q-18 19 -45 19t-45 -19l-555 -554q-19 -19 -45 -19t-45 19q-19 18 -19 44.5t19 45.5l555 554q27 28 62 42t73 14t73 -14t62 -42q56 -56 56 -135t-56 -135l-236 -236
l-541 -541q-47 -47 -105.5 -70t-120.5 -23q-61 0 -119.5 23t-105.5 70q-47 46 -70 105t-23 120t23 119.5t70 105.5l541 541l237 237q65 65 147.5 97.5t168 32.5t168 -32.5t147.5 -97.5z" />
    <glyph glyph-name="Refresh" unicode="&#xf051;" 
d="M1554 631q31 0 52 -21t21 -52q0 -112 -29 -215.5t-82 -194t-127 -164.5t-164.5 -127t-194 -82t-215.5 -29t-216 29t-194.5 82t-164.5 127t-127 164.5t-82 194t-29 215.5t29 216t82 194t127 164.5t164.5 127.5t194.5 82t216 29q165 0 314.5 -63t264.5 -180v213
q0 31 21.5 52.5t51.5 21.5q31 0 52 -21.5t21 -52.5v-464h-464q-31 0 -52 21t-21 52q0 30 21 51.5t52 21.5h216q-94 97 -217.5 149.5t-259.5 52.5q-138 0 -259.5 -52.5t-212 -143t-143 -212t-52.5 -259.5t52.5 -259t143 -211.5t212 -143t259.5 -52.5t259 52.5t211.5 143
t143 211.5t52.5 259q0 31 21.5 52t51.5 21z" />
    </font>
</defs>
</svg>
